<?xml version="1.0" standalone="no"?>
<!DOCTYPE svg PUBLIC "-//W3C//DTD SVG 20010904//EN"
 "http://www.w3.org/TR/2001/REC-SVG-20010904/DTD/svg10.dtd">
<svg version="1.0" xmlns="http://www.w3.org/2000/svg"
 width="215.000000pt" height="215.000000pt" viewBox="0 0 215.000000 215.000000"
 preserveAspectRatio="xMidYMid meet">
<metadata>
Created by potrace 1.14, written by Peter Selinger 2001-2017
</metadata>
<g transform="translate(0.000000,215.000000) scale(0.100000,-0.100000)"
fill="#000000" stroke="none">
<path d="M140 2109 c12 -22 38 -69 59 -102 58 -96 66 -124 76 -267 3 -41 10
-99 15 -127 6 -29 14 -77 20 -105 5 -29 12 -134 15 -233 7 -191 12 -291 19
-340 9 -65 9 -139 0 -142 -5 -1 -18 16 -29 39 -28 57 -83 128 -100 128 -8 0
-15 5 -15 11 0 6 -7 9 -15 5 -9 -3 -19 3 -26 16 -15 28 -81 88 -97 88 -9 0
-10 -5 -2 -19 5 -11 14 -22 19 -26 13 -7 42 -67 36 -73 -8 -8 -35 19 -36 37 0
9 -3 11 -5 5 -3 -6 1 -24 7 -40 7 -16 11 -33 10 -38 -1 -4 8 -24 20 -44 14
-24 17 -38 10 -40 -9 -3 -9 -8 0 -18 6 -8 16 -11 23 -7 6 4 6 0 -2 -9 -10 -13
-10 -17 1 -21 18 -7 50 -75 43 -92 -2 -7 1 -16 9 -19 10 -4 12 -13 5 -35 -5
-17 -5 -31 0 -31 19 0 19 -34 -1 -61 -17 -24 -18 -29 -5 -29 21 0 21 -34 0
-51 -14 -12 -13 -14 6 -21 17 -6 20 -11 12 -21 -11 -13 -10 -49 3 -80 4 -9 5
-24 1 -32 -3 -9 0 -15 9 -15 10 0 15 -10 15 -29 0 -17 4 -32 9 -36 6 -3 10
-13 9 -23 0 -9 7 -35 16 -57 8 -22 15 -50 16 -62 0 -12 4 -24 9 -27 4 -3 11
-19 15 -36 l6 -31 152 3 c139 3 153 5 153 21 0 22 27 41 36 26 3 -6 9 1 13 15
6 26 40 67 52 65 3 -1 19 13 35 30 15 17 23 31 18 31 -6 0 -6 7 1 19 16 31 12
61 -7 61 -15 0 -15 -2 -4 -9 12 -8 12 -11 0 -24 -21 -20 -33 -2 -37 53 l-3 45
25 -28 24 -28 9 28 c10 29 0 54 -40 99 -24 28 -82 22 -154 -16 -28 -15 -49
-22 -47 -16 5 14 91 61 127 70 45 11 30 21 -25 18 -35 -3 -60 -11 -74 -23 -11
-11 -24 -16 -28 -12 -4 5 -6 1 -4 -7 2 -9 -4 -14 -14 -14 -10 1 -16 -2 -13 -6
3 -4 -6 -15 -20 -24 -21 -14 -24 -14 -19 -1 4 8 10 15 15 15 5 0 9 6 9 13 0
28 99 77 156 77 19 0 34 4 34 9 0 12 -30 22 -42 14 -7 -3 -8 -1 -4 5 4 7 2 12
-4 12 -6 0 -8 5 -5 10 3 6 -6 15 -20 20 -37 14 -44 12 -15 -5 33 -19 13 -19
-40 0 -23 8 -66 15 -95 15 -42 0 -57 5 -79 25 l-27 25 48 0 48 0 -28 19 c-24
15 -26 19 -12 25 12 4 16 14 12 32 -3 20 -1 24 12 19 59 -24 75 -28 79 -17 2
7 16 9 35 6 l32 -6 -25 16 c-14 8 -35 21 -48 27 -13 7 -20 19 -18 26 3 8 -4
18 -17 23 -20 8 -21 9 -2 10 20 1 20 1 1 15 -22 17 -27 66 -8 73 7 2 12 -3 12
-12 0 -9 8 -16 18 -16 14 0 15 2 2 10 -24 16 4 11 39 -6 51 -26 60 -11 16 29
-27 25 -35 37 -23 37 9 0 19 6 22 13 3 6 4 3 3 -8 -1 -14 5 -21 21 -23 12 -2
22 -1 22 3 0 12 -41 49 -66 60 -25 10 -26 11 -8 25 10 8 15 10 11 4 -4 -7 2
-14 13 -17 11 -3 18 -1 14 4 -3 5 2 9 10 9 8 0 18 -4 21 -10 3 -5 0 -10 -7
-10 -7 0 3 -13 22 -30 34 -29 135 -67 195 -72 30 -3 30 -3 30 49 -1 34 -7 58
-18 71 -9 10 -15 21 -12 23 2 3 -10 6 -27 7 -27 2 -71 15 -163 47 -16 6 -17 5
-5 -4 13 -9 12 -11 -5 -12 -41 -3 -60 4 -84 27 -16 16 -19 22 -8 18 13 -4 17
-1 17 15 0 14 -6 21 -19 21 -11 0 -23 5 -27 11 -4 8 3 9 26 4 29 -6 31 -5 25
14 -5 16 -3 20 9 15 9 -3 16 -10 16 -15 0 -5 8 -9 18 -9 9 0 30 -7 46 -15 16
-9 37 -17 47 -18 9 -2 25 -9 35 -17 11 -9 15 -10 10 -2 -11 18 39 16 54 -3 7
-9 10 -18 7 -22 -9 -9 13 -33 30 -33 8 0 13 8 12 18 -5 33 13 114 32 146 22
37 25 79 5 99 -8 7 -16 25 -19 38 -3 13 -4 0 -3 -30 1 -60 -18 -81 -28 -31 -4
21 -10 29 -18 24 -8 -5 -9 -1 -5 12 6 15 3 14 -13 -5 -19 -22 -19 -26 -5 -47
8 -13 15 -29 15 -36 0 -7 -16 14 -35 47 -19 33 -35 53 -35 45 0 -10 -5 -8 -15
7 -8 12 -12 29 -8 39 4 10 2 15 -3 11 -6 -3 -17 3 -25 14 -8 12 -27 27 -42 36
-18 9 -27 20 -23 29 4 10 -2 14 -22 14 -25 1 -25 2 -9 14 16 12 16 15 1 27 -9
7 -32 12 -52 12 l-37 -2 30 14 c36 17 89 21 65 5 -13 -9 -12 -13 9 -30 24 -21
46 -27 36 -10 -9 14 1 12 36 -6 37 -19 43 -15 29 20 -14 37 -50 49 -158 52
-103 3 -152 11 -152 25 0 10 31 12 133 9 37 -1 67 2 67 7 0 12 -89 33 -135 33
-19 0 -36 4 -39 9 -8 13 37 29 59 20 11 -4 35 -8 54 -8 26 -1 32 2 27 15 -5
13 -1 15 21 10 21 -5 24 -4 13 4 -12 8 -13 10 -1 10 8 0 12 2 9 5 -2 3 -19 0
-37 -6 -35 -12 -78 0 -105 30 -14 15 -11 16 30 15 24 -1 78 -5 119 -9 48 -4
75 -3 75 3 0 6 13 4 30 -4 39 -20 38 -25 -2 -19 -18 3 -28 3 -21 -1 7 -3 10
-11 7 -18 -3 -7 2 -19 11 -26 8 -7 15 -17 15 -22 0 -6 -7 -5 -15 2 -9 7 -18
10 -21 7 -3 -3 4 -10 15 -16 11 -6 25 -21 32 -32 9 -19 9 -19 -10 -10 -34 19
-45 13 -26 -15 16 -25 16 -25 -4 -15 -33 18 -36 12 -9 -16 30 -32 64 -110 53
-121 -4 -4 -10 -1 -12 6 -7 20 -23 14 -23 -9 0 -26 16 -56 51 -94 l29 -30 1
40 c1 22 1 43 0 48 0 4 8 7 19 7 12 0 20 7 20 16 0 14 2 14 15 0 8 -8 15 -22
15 -32 0 -20 10 -13 14 9 2 17 36 53 36 38 0 -5 -5 -13 -10 -16 -6 -3 -10 -13
-10 -21 0 -8 4 -12 10 -9 6 4 10 -13 10 -45 0 -30 7 -61 16 -76 9 -13 14 -27
11 -30 -3 -3 -1 -19 3 -35 6 -20 4 -43 -5 -69 -23 -64 7 -50 38 18 21 45 27
73 27 125 0 62 13 90 23 50 3 -11 5 -7 6 10 0 15 8 30 16 33 8 4 16 20 16 38
2 31 2 31 6 3 3 -16 -1 -34 -7 -42 -6 -8 -13 -24 -15 -37 -4 -23 -16 -72 -29
-118 -12 -39 39 49 53 93 18 55 30 45 29 -23 -1 -33 1 -63 5 -66 4 -4 7 2 7
14 0 11 3 28 7 38 12 32 20 -14 12 -68 -5 -27 -4 -59 1 -71 9 -21 9 -21 8 3
-3 54 2 91 12 85 12 -7 20 27 19 80 -1 68 7 133 18 147 16 20 26 78 14 78 -6
0 -11 -8 -11 -17 0 -25 -18 -3 -29 34 -10 35 1 45 34 32 l20 -8 -20 -1 c-13
-1 -1 -10 32 -26 53 -24 84 -63 82 -101 0 -16 -1 -16 -9 2 -5 11 -20 34 -34
50 -24 29 -25 29 -26 7 0 -14 -4 -21 -11 -16 -8 5 -8 1 0 -14 13 -25 14 -35 2
-28 -14 9 -21 -20 -8 -33 8 -8 8 -20 0 -44 -6 -17 -14 -47 -18 -64 -4 -18 -11
-33 -16 -33 -5 0 -9 -5 -9 -11 0 -5 4 -8 8 -5 5 3 9 -17 11 -43 1 -34 -2 -50
-12 -54 -8 -3 -17 -17 -19 -32 -6 -29 7 -21 16 10 3 11 4 0 2 -25 -2 -25 -2
-37 1 -27 2 9 11 17 19 17 8 0 14 10 14 24 0 14 4 27 9 30 5 4 12 24 16 46 4
26 13 41 25 45 16 5 19 14 16 46 -3 32 -1 37 10 28 9 -7 14 -7 14 -1 0 5 -7
15 -15 22 -8 7 -13 16 -10 20 3 4 -2 25 -10 46 l-16 39 20 -23 c13 -15 21 -18
24 -10 4 8 6 7 6 -4 1 -11 7 -15 21 -11 12 3 20 0 20 -6 0 -7 7 -11 17 -9 22
4 35 -44 26 -97 l-7 -40 -8 44 c-12 70 -30 70 -34 0 -2 -42 -17 -61 -41 -52
-15 6 -18 -18 -3 -33 6 -6 11 -50 12 -97 1 -78 3 -87 19 -87 11 0 19 5 19 10
0 19 2 25 16 45 8 11 14 39 14 62 0 24 5 43 10 43 6 0 10 7 10 15 0 8 9 19 19
24 16 9 18 8 14 -9 -3 -11 -9 -18 -13 -15 -5 3 -6 -4 -3 -15 7 -25 5 -26 33
29 12 23 17 40 12 37 -6 -3 -13 0 -15 6 -4 10 -6 10 -6 1 -1 -7 -6 -13 -11
-13 -6 0 -8 12 -5 28 3 15 2 21 -1 15 -10 -23 -26 -14 -18 9 4 13 7 35 6 51 0
15 3 25 8 22 4 -3 11 1 13 7 3 7 6 2 6 -12 1 -19 3 -22 11 -10 9 15 10 15 22
-26 2 -7 15 8 30 31 14 24 21 42 13 39 -21 -8 -26 12 -10 42 8 16 17 28 20 27
14 -7 25 -2 19 9 -4 7 -3 8 4 4 6 -4 8 -14 5 -22 -5 -13 -1 -15 15 -10 11 4
23 2 27 -4 4 -6 16 -8 27 -4 15 4 19 2 15 -7 -2 -8 -10 -13 -16 -11 -7 1 -10
-2 -7 -7 3 -5 16 -7 29 -5 12 3 0 -7 -27 -21 -41 -23 -66 -30 -108 -34 -5 -1
-8 -8 -8 -16 0 -21 30 -31 41 -14 6 9 9 10 9 2 0 -7 -8 -17 -17 -22 -17 -10
-17 -10 0 -11 9 0 17 -5 17 -11 0 -8 5 -7 15 1 13 11 15 10 9 -6 -4 -14 1 -11
20 9 14 15 26 33 26 39 0 6 -3 9 -6 5 -3 -3 -12 0 -19 6 -20 19 73 69 100 54
19 -10 19 -11 -5 -17 -14 -3 -26 -14 -28 -24 -2 -10 0 -16 6 -12 15 9 42 -4
42 -19 0 -21 -51 -56 -71 -50 -9 3 -21 0 -25 -6 -5 -9 -2 -10 9 -6 11 4 14 2
10 -9 -9 -25 10 -15 53 27 41 40 43 41 60 24 17 -17 17 -18 -10 -38 -26 -19
-27 -21 -10 -27 16 -6 16 -7 -4 -12 -14 -4 -20 -2 -15 5 4 7 0 8 -11 4 -10 -4
-20 -7 -22 -7 -9 0 -3 -29 7 -32 6 -2 -11 -16 -38 -32 -26 -15 -39 -24 -28
-20 11 4 32 9 47 12 15 2 30 13 33 23 4 10 15 19 26 19 22 0 24 -11 7 -28 -9
-9 -6 -12 16 -12 27 0 64 -33 93 -84 16 -27 17 -128 1 -144 -17 -17 -31 -15
-24 3 3 9 0 15 -8 15 -7 0 -23 11 -36 25 -12 13 -27 22 -31 19 -11 -7 0 -54
16 -74 11 -12 11 -17 0 -27 -17 -15 -45 -6 -45 14 0 8 5 11 10 8 6 -3 10 1 10
9 0 9 -4 16 -10 16 -5 0 -10 7 -10 15 0 8 -7 15 -15 15 -8 0 -15 4 -15 8 0 13
-48 32 -65 26 -19 -8 -19 -20 0 -28 8 -3 15 -12 15 -20 0 -7 7 -16 15 -20 21
-8 36 -49 21 -58 -6 -4 -19 -5 -28 -2 -9 3 -21 -2 -26 -12 -6 -11 -11 -13 -16
-5 -4 6 -2 11 3 11 6 0 2 9 -9 20 -15 15 -28 19 -51 15 -32 -6 -149 -61 -149
-71 0 -3 5 -2 10 1 5 3 10 1 10 -5 0 -7 7 -10 15 -6 8 3 15 0 15 -7 1 -7 6 -5
14 5 7 10 24 18 37 17 l24 -1 -25 -7 c-16 -5 -21 -9 -13 -14 7 -4 26 -1 42 8
36 18 77 20 84 3 4 -10 6 -10 6 0 1 7 15 12 36 12 26 0 39 -6 51 -25 9 -13 26
-27 37 -31 12 -4 38 -18 57 -31 l35 -23 -34 6 c-26 6 -32 4 -26 -5 11 -20 15
-110 4 -116 -20 -13 -8 -25 24 -25 44 0 53 -11 25 -27 -23 -12 -23 -12 -2 -13
12 0 24 -7 28 -15 3 -8 1 -15 -5 -15 -21 0 2 -18 31 -23 46 -10 37 -28 -10
-21 l-40 7 17 -34 c9 -19 16 -48 14 -65 -2 -24 4 -37 26 -55 26 -22 27 -26 16
-49 -20 -39 -17 -53 11 -46 15 4 28 0 36 -9 10 -12 10 -15 -3 -15 -9 0 -19 -4
-22 -10 -3 -5 2 -9 12 -7 10 1 19 -2 20 -8 2 -5 -7 -10 -20 -10 -28 0 -54 -49
-37 -70 6 -8 9 -19 5 -25 -9 -14 14 -42 28 -33 6 4 8 0 4 -10 -6 -15 6 -17
123 -17 l130 0 0 939 c0 1001 1 962 -45 945 -11 -5 -15 1 -15 21 0 24 2 26 15
15 25 -21 42 2 27 35 -7 14 -12 37 -12 50 0 27 16 42 23 23 3 -7 6 4 6 25 1
30 -3 37 -18 37 -11 0 -29 13 -41 30 l-21 30 -111 0 c-90 0 -108 -2 -99 -13 8
-10 7 -17 -1 -25 -17 -17 -27 -15 -64 13 -29 22 -42 25 -123 25 -74 0 -91 -3
-91 -15 0 -19 -11 -19 -36 0 -14 11 -50 14 -148 15 -125 0 -128 0 -123 -21 9
-35 -1 -49 -28 -37 -19 8 -27 6 -44 -11 -28 -28 -19 -45 42 -77 67 -34 77 -43
77 -65 0 -23 -13 -24 -30 -4 -11 13 -19 9 -58 -25 -24 -22 -51 -40 -59 -40 -8
0 -22 13 -31 29 -18 32 -49 51 -85 52 -19 0 -17 3 11 16 39 20 42 50 7 63 -26
10 -29 17 -25 60 3 37 8 37 40 2 26 -29 31 -31 55 -20 20 9 26 18 22 35 -2 12
-1 20 3 18 5 -3 10 2 14 10 4 12 -7 15 -69 15 -43 0 -75 -4 -75 -10 0 -5 -5
-10 -11 -10 -5 0 -7 5 -4 10 4 7 -52 10 -160 10 -136 0 -166 -2 -162 -14 7
-18 -90 -16 -102 2 -6 9 -43 12 -152 10 -141 -3 -144 -4 -147 -25 -2 -13 -11
-28 -21 -35 -10 -7 -19 -17 -20 -23 -1 -13 -50 -14 -58 -1 -3 5 -1 6 5 2 7 -4
12 -2 12 3 0 6 -7 11 -15 11 -8 0 -25 16 -37 35 -33 50 -54 46 -28 -6z m1344
5 c11 -29 6 -44 -14 -44 -25 0 -36 25 -20 45 16 19 26 19 34 -1z m-622 -33
c-2 -7 4 -21 12 -30 14 -15 14 -19 0 -39 -8 -12 -26 -22 -39 -22 -37 0 -39 18
-3 28 l33 8 -33 19 c-46 28 -42 59 8 53 15 -2 24 -8 22 -17z m1063 9 c3 -5 -1
-10 -9 -10 -8 0 -18 5 -21 10 -3 6 1 10 9 10 8 0 18 -4 21 -10z m-1458 -23
c87 -64 310 -333 367 -443 30 -57 27 -102 -3 -61 -10 12 -25 42 -35 66 -19 49
-45 88 -91 139 -16 19 -30 39 -30 44 0 6 -14 18 -30 27 -17 9 -44 27 -60 39
l-30 24 40 -21 c40 -21 40 -21 -14 29 -30 27 -51 50 -47 50 4 0 -21 23 -55 50
-34 28 -67 50 -73 50 -6 0 7 -12 29 -27 47 -32 32 -41 -32 -19 -61 21 -68 20
-80 -6 -10 -21 -11 -19 -10 14 1 23 4 33 9 25 5 -8 8 -7 8 5 0 11 12 21 33 27
51 15 71 13 104 -12z m316 -38 c6 -9 7 -25 3 -35 -7 -18 -9 -17 -32 9 -25 29
-24 50 3 45 9 -2 20 -10 26 -19z m472 11 c3 -5 -1 -10 -9 -10 -9 0 -16 5 -16
10 0 6 4 10 9 10 6 0 13 -4 16 -10z m243 -23 c2 -10 -3 -17 -12 -17 -18 0 -29
16 -21 31 9 14 29 6 33 -14z m77 2 c5 -13 2 -25 -6 -30 -17 -10 -29 -2 -29 20
0 35 25 42 35 10z m175 -36 c0 -7 -4 -13 -10 -13 -5 0 -10 12 -10 28 0 21 2
24 10 12 5 -8 10 -21 10 -27z m184 -42 c22 -51 36 -112 29 -124 -3 -5 -5 -42
-5 -82 1 -52 -7 -100 -29 -176 -17 -57 -33 -115 -37 -129 -4 -16 -15 -26 -30
-28 -23 -3 -23 -3 -7 22 10 14 14 26 11 26 -3 0 6 24 20 53 15 28 28 70 30 92
2 22 6 78 9 124 3 46 8 88 11 93 3 4 -2 15 -10 23 -8 9 -13 22 -10 30 4 8 1
15 -6 15 -7 0 -6 6 4 16 20 19 21 31 2 15 -15 -12 -46 -5 -46 11 0 15 -100
-43 -144 -84 -35 -33 -56 -46 -56 -35 0 11 81 87 92 87 7 0 26 16 41 35 15 19
25 35 21 35 -11 0 -111 -58 -135 -78 -61 -51 -279 -276 -279 -288 0 -25 -23
-64 -39 -65 -10 0 -12 -2 -3 -6 18 -7 15 -20 -8 -26 -16 -4 -20 0 -20 21 0 42
33 88 109 155 18 15 29 33 25 39 -4 7 -3 8 4 4 6 -4 68 48 145 121 110 105
143 131 183 144 67 21 107 9 128 -40z m-1419 29 c3 -6 -1 -7 -9 -4 -18 7 -21
14 -7 14 6 0 13 -4 16 -10z m-74 -50 c6 0 8 -4 5 -8 -2 -4 16 -19 41 -32 39
-20 42 -25 27 -32 -14 -6 -12 -7 8 -3 34 7 78 -10 78 -30 0 -8 7 -15 16 -15 8
0 12 -5 9 -10 -4 -6 -1 -18 6 -26 10 -13 4 -14 -47 -11 -56 4 -122 23 -112 32
2 2 26 -2 53 -10 61 -19 68 -19 57 1 -5 9 -33 25 -63 35 -62 22 -62 22 -53 8
3 -6 -9 -3 -27 6 -46 23 -50 29 -15 21 26 -6 28 -5 17 8 -11 13 -9 14 18 6 46
-13 29 4 -19 20 -22 7 -46 20 -52 29 -10 13 -10 14 2 4 28 -25 33 -12 7 15
-37 38 -34 50 4 18 17 -14 35 -26 40 -26z m319 27 c14 -1 43 -20 69 -44 39
-39 43 -46 37 -78 -4 -21 -13 -35 -21 -35 -8 0 -15 -6 -15 -14 0 -8 -7 -16
-15 -20 -12 -4 -26 17 -57 82 -23 48 -48 96 -57 106 -15 18 -15 19 9 12 14 -5
36 -9 50 -9z m-255 -7 c4 -6 12 -7 18 -3 7 4 6 0 -2 -10 -7 -9 -19 -17 -25
-16 -6 0 -6 3 2 6 10 4 9 8 -5 19 -10 7 -13 14 -6 14 6 0 15 -5 18 -10z m555
-45 c6 -8 10 -22 8 -31 -3 -17 -4 -17 -20 0 -19 18 -24 46 -9 46 5 0 14 -7 21
-15z m810 -31 c0 -8 8 -15 18 -15 16 -1 16 -2 0 -6 -22 -6 -23 -22 -2 -37 12
-9 -4 -12 -75 -12 l-90 0 22 23 c12 12 30 23 39 23 11 0 15 5 12 14 -5 14 5
18 59 23 9 1 17 -5 17 -13z m-580 -20 c0 -2 -9 -4 -20 -4 -11 0 -20 4 -20 9 0
5 9 7 20 4 11 -3 20 -7 20 -9z m-110 -19 c0 -14 -4 -25 -10 -25 -5 0 -10 11
-10 25 0 14 5 25 10 25 6 0 10 -11 10 -25z m95 -36 c4 -11 4 -23 1 -26 -8 -9
-36 17 -36 33 0 22 28 16 35 -7z m608 -41 c10 -5 15 -13 12 -19 -7 -11 -71
-11 -100 0 -29 12 -135 -28 -135 -50 0 -4 10 -5 23 -2 16 3 18 2 8 -5 -11 -8
-10 -12 5 -21 24 -13 4 -14 -30 -1 -29 11 -76 -5 -76 -24 0 -11 -50 -46 -65
-46 -4 0 5 16 20 36 l28 36 -24 -7 c-14 -4 -2 8 26 27 28 19 49 40 48 46 -2 7
10 12 31 12 35 0 57 15 34 23 -7 2 30 4 82 4 52 0 103 -4 113 -9z m-953 -12
c0 -17 -29 -66 -34 -58 -8 13 10 62 24 62 5 0 10 -2 10 -4z m416 -11 c4 -8 3
-22 0 -32 -6 -14 -9 -14 -27 6 -11 11 -17 26 -14 31 9 15 35 12 41 -5z m432
-19 c-7 -7 -19 -11 -25 -9 -18 7 -5 23 18 23 16 0 18 -2 7 -14z m-193 -6 c-3
-5 -12 -10 -18 -10 -7 0 -6 4 3 10 19 12 23 12 15 0z m220 -20 c3 -6 -1 -7 -9
-4 -18 7 -21 14 -7 14 6 0 13 -4 16 -10z m-1488 -37 c-3 -10 -5 -4 -5 12 0 17
2 24 5 18 2 -7 2 -21 0 -30z m1447 -40 c20 -16 24 -23 12 -23 -9 0 -16 -5 -16
-11 0 -6 -10 -8 -22 -5 -13 3 -8 -1 10 -9 17 -8 32 -17 32 -18 0 -2 -30 3 -67
10 -38 8 -85 13 -105 11 -23 -2 -38 1 -38 7 0 19 23 35 50 36 14 0 19 3 13 6
-28 11 -10 19 45 18 44 0 64 -5 86 -22z m-1419 -53 c5 -27 4 -32 -5 -24 -6 6
-14 27 -16 45 -7 45 11 26 21 -21z m745 45 c0 -7 -39 -12 -49 -5 -7 4 1 7 18
8 17 0 31 -1 31 -3z m-85 -25 c4 -6 11 -8 16 -5 13 9 23 -21 14 -42 -5 -12 -9
-14 -12 -6 -2 7 -4 15 -3 18 0 3 -9 15 -22 25 -13 11 -18 19 -11 20 6 0 15 -5
18 -10z m-39 -62 c-6 -40 -6 -42 8 -23 16 20 21 10 10 -19 -3 -9 -10 -13 -16
-10 -6 4 -8 -11 -6 -37 3 -24 -1 -60 -9 -79 -11 -31 -12 -22 -7 75 6 114 9
135 20 135 4 0 4 -19 0 -42z m324 27 c7 -8 19 -15 26 -15 8 0 14 -10 14 -21 0
-20 -1 -21 -25 -5 -14 9 -25 13 -25 9 0 -9 -29 30 -30 40 0 13 27 8 40 -8z
m340 -5 c0 -5 5 -10 10 -10 18 0 113 -65 145 -98 33 -35 37 -51 38 -130 0 -64
9 -58 36 28 l21 65 -6 -54 c-8 -65 -25 -110 -53 -135 -29 -27 -48 -9 -34 31
18 48 15 83 -6 83 -10 0 -24 7 -31 15 -11 13 -10 14 4 9 9 -3 16 -2 16 4 0 14
-41 63 -49 58 -4 -3 -13 -1 -21 4 -11 7 -8 9 10 8 14 -1 34 -8 45 -15 11 -7
26 -13 35 -13 14 0 -7 16 -50 37 -8 4 -33 19 -54 35 -28 20 -51 28 -83 28 -36
0 -43 3 -43 20 0 11 7 20 15 20 8 0 15 5 15 10 0 6 9 10 20 10 11 0 20 -4 20
-10z m185 -10 c3 -5 1 -10 -4 -10 -6 0 -11 5 -11 10 0 6 2 10 4 10 3 0 8 -4
11 -10z m-1360 -10 c-3 -5 -12 -10 -18 -10 -7 0 -6 4 3 10 19 12 23 12 15 0z
m662 -12 c-3 -8 -6 -5 -6 6 -1 11 2 17 5 13 3 -3 4 -12 1 -19z m-237 -13 c7
-9 8 -15 2 -15 -5 0 -12 7 -16 15 -3 8 -4 15 -2 15 2 0 9 -7 16 -15z m182 -17
c-7 -7 -12 -8 -12 -2 0 14 12 26 19 19 2 -3 -1 -11 -7 -17z m-514 -18 c37 -18
72 -53 72 -72 0 -4 -6 -5 -14 -2 -30 12 -24 -17 13 -60 22 -25 42 -55 46 -66
4 -13 18 -23 36 -27 31 -6 63 -51 57 -80 -2 -12 -8 -11 -31 7 -15 12 -26 27
-24 33 4 12 -52 64 -65 59 -5 -1 -24 22 -43 52 -19 30 -43 61 -53 68 -10 7
-21 21 -25 30 -3 10 -21 24 -39 33 -23 10 -26 13 -8 9 40 -10 42 -10 47 4 3 7
-4 12 -19 12 -18 0 -20 2 -8 10 8 5 15 10 16 10 0 0 19 -9 42 -20z m568 -58
c-9 -36 -14 -63 -16 -87 -1 -16 -4 -14 -12 8 -7 21 -7 36 1 53 6 14 8 41 5 62
-5 37 -5 37 11 14 11 -16 15 -32 11 -50z m191 16 c-3 -8 -6 -5 -6 6 -1 11 2
17 5 13 3 -3 4 -12 1 -19z m-777 -58 c13 -11 20 -20 15 -20 -4 0 -2 -7 5 -15
23 -28 4 -15 -30 20 -36 37 -29 49 10 15z m170 -61 c0 -6 -4 -7 -10 -4 -5 3
-10 11 -10 16 0 6 5 7 10 4 6 -3 10 -11 10 -16z m627 -11 c-3 -8 -6 -5 -6 6
-1 11 2 17 5 13 3 -3 4 -12 1 -19z m16 -69 c-3 -10 -12 -19 -19 -19 -17 0 -18
14 -2 40 14 22 28 8 21 -21z m-699 -57 c-4 -6 -64 31 -64 40 0 4 15 -3 34 -15
18 -12 32 -24 30 -25z m46 12 c0 -2 -11 2 -25 8 -14 6 -25 15 -25 20 0 5 11 1
25 -8 14 -9 25 -18 25 -20z m-196 -82 c3 -5 -1 -9 -9 -9 -8 0 -15 4 -15 9 0 4
4 8 9 8 6 0 12 -4 15 -8z m-127 -84 c-3 -8 -6 -5 -6 6 -1 11 2 17 5 13 3 -3 4
-12 1 -19z m223 18 c0 -9 -39 -13 -51 -5 -10 6 -4 9 19 9 17 0 32 -2 32 -4z
m-213 -158 c-3 -7 -5 -2 -5 12 0 14 2 19 5 13 2 -7 2 -19 0 -25z m1278 -17 c3
-6 -3 -9 -14 -8 -11 0 -17 5 -15 9 7 11 22 10 29 -1z m70 -1 c3 -5 2 -10 -4
-10 -5 0 -13 5 -16 10 -3 6 -2 10 4 10 5 0 13 -4 16 -10z m220 0 c-3 -5 -13
-10 -21 -10 -8 0 -14 5 -14 10 0 6 9 10 21 10 11 0 17 -4 14 -10z m195 0 c0
-13 -80 -13 -100 0 -11 7 2 10 43 10 31 0 57 -4 57 -10z m-214 -165 c10 -8 15
-14 9 -14 -5 0 -19 6 -29 14 -11 8 -15 15 -10 15 6 0 19 -7 30 -15z m-1426
-135 c-18 -12 -47 -13 -54 -2 -2 4 12 9 32 10 28 2 33 0 22 -8z m55 -50 c8
-13 -33 -38 -75 -45 l-35 -6 40 30 c42 32 60 37 70 21z m69 -127 c-30 -22 -39
-15 -13 13 15 16 25 21 28 13 2 -7 -4 -18 -15 -26z m1246 -33 c6 -11 8 -20 6
-20 -3 0 -10 9 -16 20 -6 11 -8 20 -6 20 3 0 10 -9 16 -20z m-1153 -62 c-3 -7
-5 -2 -5 12 0 14 2 19 5 13 2 -7 2 -19 0 -25z m-97 -12 c0 -2 -7 -9 -15 -16
-13 -11 -14 -10 -9 4 5 14 24 23 24 12z m97 -19 c0 -7 -8 -13 -18 -13 -13 0
-15 3 -7 13 13 17 25 17 25 0z m23 -32 c0 -8 -4 -15 -10 -15 -5 0 -7 7 -4 15
4 8 8 15 10 15 2 0 4 -7 4 -15z m-110 -9 c0 -2 -7 -7 -16 -10 -8 -3 -12 -2 -9
4 6 10 25 14 25 6z m-41 -70 c-13 -12 -17 -14 -10 -3 8 9 10 17 6 17 -4 0 -1
7 6 16 9 11 14 13 17 4 3 -7 -6 -22 -19 -34z m74 -17 c-26 -27 -54 -49 -61
-49 -20 0 6 34 38 48 15 7 32 24 39 38 6 14 16 22 22 18 7 -4 -8 -25 -38 -55z
m1402 1 c8 -13 -5 -13 -25 0 -13 8 -13 10 2 10 9 0 20 -4 23 -10z m17 -61 c18
-12 24 -18 13 -14 -11 4 -28 10 -37 12 -10 3 -18 9 -18 14 0 13 6 11 42 -12z"/>
<path d="M1235 2140 c4 -6 11 -8 16 -5 14 9 11 15 -7 15 -8 0 -12 -5 -9 -10z"/>
<path d="M1164 1986 c-9 -23 0 -51 16 -51 10 0 16 12 18 33 2 24 -1 32 -13 32
-8 0 -18 -6 -21 -14z"/>
<path d="M498 1713 c6 -2 18 -2 25 0 6 3 1 5 -13 5 -14 0 -19 -2 -12 -5z"/>
<path d="M1535 1414 c-13 -10 -15 -14 -4 -14 20 0 43 16 32 23 -4 3 -17 -1
-28 -9z"/>
<path d="M790 1380 c0 -5 5 -10 11 -10 5 0 7 5 4 10 -3 6 -8 10 -11 10 -2 0
-4 -4 -4 -10z"/>
<path d="M690 1351 c0 -5 5 -13 10 -16 6 -3 10 -2 10 4 0 5 -4 13 -10 16 -5 3
-10 2 -10 -4z"/>
<path d="M1033 1228 c-13 -16 -26 -58 -19 -58 8 0 38 61 33 66 -2 3 -9 -1 -14
-8z"/>
<path d="M1530 1230 c0 -5 4 -10 9 -10 6 0 13 5 16 10 3 6 -1 10 -9 10 -9 0
-16 -4 -16 -10z"/>
<path d="M1585 1195 c-5 -11 -15 -29 -24 -39 -15 -18 -15 -18 4 -8 11 5 29 20
40 33 11 12 15 19 8 16 -6 -4 -13 -1 -16 5 -3 8 -7 6 -12 -7z"/>
<path d="M1121 1164 c0 -11 3 -14 6 -6 3 7 2 16 -1 19 -3 4 -6 -2 -5 -13z"/>
<path d="M1466 1172 c-6 -10 30 -9 40 1 4 4 -2 7 -14 7 -11 0 -23 -4 -26 -8z"/>
<path d="M1507 1154 c-15 -14 -31 -22 -37 -19 -14 9 -69 -50 -60 -65 4 -7 15
-10 25 -7 9 4 13 11 10 17 -3 5 1 10 10 10 9 0 37 20 63 45 26 26 40 45 32 45
-8 0 -28 -11 -43 -26z"/>
<path d="M956 1135 c-9 -26 -7 -32 5 -12 6 10 9 21 6 23 -2 3 -7 -2 -11 -11z"/>
<path d="M1614 1104 c-18 -14 -18 -15 4 -4 12 6 22 13 22 15 0 8 -5 6 -26 -11z"/>
<path d="M648 1093 c7 -3 16 -2 19 1 4 3 -2 6 -13 5 -11 0 -14 -3 -6 -6z"/>
<path d="M1635 1089 c-4 -6 -4 -13 0 -17 3 -3 10 0 14 7 5 8 17 11 30 6 12 -4
21 -2 21 4 0 14 -57 14 -65 0z"/>
<path d="M1695 1070 c-19 -8 -19 -9 3 -9 12 -1 22 4 22 9 0 6 -1 10 -2 9 -2 0
-12 -4 -23 -9z"/>
<path d="M1355 1020 c-3 -6 1 -7 9 -4 18 7 21 14 7 14 -6 0 -13 -4 -16 -10z"/>
<path d="M1470 981 c0 -5 -34 -9 -75 -9 -87 -1 -126 -21 -150 -79 -8 -20 -15
-37 -15 -39 0 -2 19 -4 43 -4 102 0 217 62 213 115 -1 22 -16 37 -16 16z"/>
<path d="M504 825 c10 -7 15 -18 11 -24 -3 -7 3 -11 16 -11 19 0 20 2 8 18
-18 22 -31 32 -44 32 -5 -1 -2 -7 9 -15z"/>
<path d="M1513 804 c13 -13 -35 -44 -70 -45 -31 0 -34 -2 -18 -9 27 -12 85
-12 85 -1 0 5 13 14 30 19 36 13 31 42 -8 42 -14 0 -23 -3 -19 -6z"/>
<path d="M1608 723 c6 -2 18 -2 25 0 6 3 1 5 -13 5 -14 0 -19 -2 -12 -5z"/>
<path d="M1585 700 c-17 -6 -14 -9 18 -15 21 -4 41 -5 44 -1 15 14 -35 27 -62
16z"/>
<path d="M1458 683 c7 -3 16 -2 19 1 4 3 -2 6 -13 5 -11 0 -14 -3 -6 -6z"/>
<path d="M475 660 c13 -15 15 -21 5 -16 -8 4 -6 0 5 -9 11 -9 39 -21 63 -27
23 -6 45 -14 48 -19 5 -8 35 -5 74 8 13 4 12 6 -3 14 -9 6 -22 7 -29 3 -6 -4
-8 -3 -5 3 11 18 -22 53 -48 51 -14 -1 -25 -4 -25 -5 0 -2 15 -12 33 -23 43
-26 31 -25 -34 4 -30 13 -65 27 -79 31 l-25 8 20 -23z"/>
<path d="M1590 660 c10 -6 11 -10 3 -10 -7 0 -13 -4 -13 -10 0 -5 9 -10 20
-10 13 0 20 7 20 20 0 14 -7 20 -22 20 -19 0 -20 -2 -8 -10z"/>
<path d="M880 606 c0 -9 -7 -16 -15 -16 -11 0 -14 -10 -12 -44 4 -47 31 -101
47 -91 12 7 77 -51 68 -60 -4 -4 -21 -2 -38 4 -25 8 -35 8 -46 -3 -8 -8 -14
-20 -14 -26 0 -6 -5 -8 -11 -4 -7 4 -9 -2 -7 -17 2 -16 21 -32 68 -56 74 -38
116 -39 195 -4 40 18 60 41 36 41 -5 0 -24 12 -41 27 -18 14 -42 28 -54 29
-11 1 -22 3 -24 3 -7 2 38 78 57 95 12 11 21 22 21 25 0 6 -7 7 -91 13 -53 4
-119 43 -119 70 0 9 -4 20 -10 23 -5 3 -10 -1 -10 -9z"/>
<path d="M528 583 c7 -3 16 -2 19 1 4 3 -2 6 -13 5 -11 0 -14 -3 -6 -6z"/>
<path d="M800 188 c0 -19 2 -20 10 -8 13 19 13 30 0 30 -5 0 -10 -10 -10 -22z"/>
<path d="M881 164 c0 -11 3 -14 6 -6 3 7 2 16 -1 19 -3 4 -6 -2 -5 -13z"/>
<path d="M776 162 c2 -2 -5 -17 -16 -32 -14 -20 -17 -34 -11 -56 7 -27 8 -27
25 25 10 31 13 57 8 61 -5 4 -7 5 -6 2z"/>
<path d="M826 135 c-3 -8 -1 -15 4 -15 6 0 10 7 10 15 0 8 -2 15 -4 15 -2 0
-6 -7 -10 -15z"/>
<path d="M5 60 c-3 -6 1 -7 9 -4 18 7 21 14 7 14 -6 0 -13 -4 -16 -10z"/>
<path d="M725 59 c-4 -6 -5 -12 -2 -15 2 -3 7 2 10 11 7 17 1 20 -8 4z"/>
<path d="M662 15 c-10 -12 -10 -15 2 -15 7 0 16 7 20 15 7 19 -5 19 -22 0z"/>
</g>
</svg>
