<?xml version="1.0" standalone="no"?>
<!DOCTYPE svg PUBLIC "-//W3C//DTD SVG 20010904//EN"
 "http://www.w3.org/TR/2001/REC-SVG-20010904/DTD/svg10.dtd">
<svg version="1.0" xmlns="http://www.w3.org/2000/svg"
 width="538.000000pt" height="538.000000pt" viewBox="0 0 538.000000 538.000000"
 preserveAspectRatio="xMidYMid meet">
<metadata>
Created by potrace 1.14, written by Peter Selinger 2001-2017
</metadata>
<g transform="translate(0.000000,538.000000) scale(0.100000,-0.100000)"
fill="#000000" stroke="none">
<path d="M180 5371 c0 -4 10 -21 23 -37 34 -43 139 -207 206 -319 33 -55 80
-131 104 -170 67 -104 83 -142 116 -261 22 -81 31 -143 36 -238 4 -71 11 -139
15 -152 5 -12 14 -92 20 -178 6 -86 15 -167 20 -180 5 -13 14 -70 20 -127 6
-57 16 -116 21 -130 6 -14 17 -111 24 -215 8 -104 19 -225 24 -269 5 -44 10
-219 10 -390 1 -170 6 -339 12 -375 15 -96 28 -203 39 -310 5 -52 14 -120 19
-150 13 -72 22 -190 14 -190 -17 0 -103 36 -103 43 0 5 10 5 21 2 21 -7 22 -5
15 36 -4 24 -21 91 -38 149 -25 84 -44 125 -96 204 -36 55 -79 114 -95 130
-16 17 -36 45 -43 63 -16 38 -52 75 -102 107 -21 13 -46 33 -56 45 -11 11 -25
21 -32 21 -7 0 -17 6 -21 13 -8 12 -160 90 -200 101 -11 4 -24 13 -27 21 -3 8
-13 15 -22 15 -22 0 -12 23 13 30 21 5 21 6 3 28 -15 17 -28 22 -69 22 -40 0
-51 -3 -51 -16 0 -11 5 -14 16 -10 8 3 22 0 29 -8 16 -15 18 -86 3 -86 -5 0
-6 -5 -3 -11 4 -6 -1 -16 -10 -23 -17 -12 -17 -13 -1 -19 10 -4 14 -12 11 -18
-4 -6 -13 -8 -21 -5 -8 3 -14 1 -14 -4 0 -6 9 -10 19 -10 23 0 36 -16 19 -23
-10 -3 -10 -9 -2 -23 5 -11 12 -59 13 -109 2 -49 6 -92 9 -95 4 -3 8 -15 9
-27 2 -18 -4 -22 -40 -29 -34 -5 -38 -8 -22 -14 11 -4 32 -6 47 -3 30 6 48
-18 48 -61 0 -14 8 -30 17 -35 17 -10 17 -10 1 -11 -10 0 -18 -5 -18 -10 0 -6
11 -8 28 -4 25 6 26 5 11 -10 -11 -12 -35 -18 -82 -19 -37 -1 -67 -5 -67 -8 0
-10 98 -19 132 -12 22 4 29 3 24 -5 -4 -7 -14 -12 -22 -12 -8 0 -14 -5 -14
-11 0 -7 24 -10 69 -8 69 4 100 -4 67 -17 -23 -9 -20 -24 5 -24 18 0 19 -2 9
-15 -7 -8 -21 -15 -32 -15 -11 0 -16 -5 -13 -11 4 -6 19 -7 35 -4 35 8 43 -4
19 -27 -16 -15 -20 -16 -33 -3 -8 9 -17 11 -20 6 -3 -5 1 -12 10 -15 8 -3 12
-11 9 -17 -5 -8 -10 -8 -18 0 -13 13 -27 14 -27 2 0 -16 29 -20 60 -10 17 6
38 8 48 4 15 -6 13 -9 -10 -21 -31 -16 -112 -35 -171 -39 -80 -6 -127 -17
-127 -29 0 -9 25 -11 98 -9 75 2 91 0 70 -8 -14 -5 -29 -16 -31 -23 -5 -12 4
-12 52 -1 31 8 77 21 102 29 57 19 171 32 149 17 -8 -6 -26 -11 -41 -11 -14 0
-30 -5 -37 -12 -14 -14 -16 -32 -4 -24 5 3 22 1 38 -3 29 -9 29 -9 -13 -16
-24 -4 -43 -11 -43 -16 0 -4 9 -6 20 -4 37 7 49 -3 36 -32 -20 -44 -235 -131
-332 -134 -16 0 -38 -5 -49 -10 -29 -13 123 -1 220 18 44 8 106 23 137 34 82
27 93 26 96 -14 2 -28 -2 -36 -25 -46 -16 -8 -36 -17 -46 -22 -18 -10 -154
-53 -193 -62 -12 -2 -27 -1 -35 3 -20 11 -162 -13 -167 -28 -2 -8 6 -10 30 -5
18 4 51 6 73 6 89 -3 102 -2 157 13 75 19 150 22 156 6 2 -6 11 -12 19 -12 9
0 13 -6 10 -14 -3 -8 -1 -16 5 -18 5 -2 -32 -23 -83 -48 -212 -99 -266 -123
-314 -141 l-50 -19 41 5 c23 3 94 25 158 50 64 25 125 45 134 45 10 0 23 5 30
12 7 7 12 8 12 2 0 -5 -5 -15 -12 -22 -17 -17 18 -28 38 -12 10 9 18 10 25 3
7 -7 -5 -18 -38 -36 -71 -36 -155 -60 -263 -72 -56 -6 -130 -33 -130 -47 0 -6
14 -8 37 -3 21 4 63 11 93 16 58 9 78 14 199 49 41 11 81 19 90 17 12 -4 11
-7 -6 -12 -24 -8 -32 -48 -13 -60 6 -3 10 -1 10 4 0 6 5 11 11 11 5 0 7 -4 4
-10 -3 -5 -1 -10 6 -10 26 0 -8 -19 -96 -55 -49 -20 -113 -49 -141 -65 -28
-16 -67 -32 -87 -35 -20 -4 -38 -13 -41 -21 -3 -8 -18 -14 -34 -14 -25 0 -29
-4 -30 -30 -1 -26 2 -30 19 -25 10 3 29 8 42 11 33 9 128 47 246 98 110 48
134 55 125 32 -3 -9 5 -15 26 -19 28 -6 29 -8 18 -27 -13 -21 -120 -91 -193
-127 -36 -18 -114 -41 -242 -73 -24 -6 -43 -16 -43 -21 0 -6 10 -9 23 -6 72
18 98 19 95 6 -2 -8 -7 -17 -13 -21 -24 -18 19 -5 97 28 45 20 108 45 138 56
30 11 74 29 97 39 55 25 73 24 75 -3 5 -74 -12 -93 -141 -159 -46 -24 -114
-63 -150 -86 -36 -24 -74 -43 -83 -43 -10 0 -18 -3 -18 -8 0 -4 -21 -15 -48
-25 -57 -21 -79 -34 -70 -43 4 -4 23 1 43 10 20 10 48 16 63 15 35 -4 152 38
173 62 9 10 28 21 43 25 32 8 45 24 14 17 -21 -4 -21 -3 -5 7 10 6 28 13 40
14 12 2 29 6 37 10 33 13 134 46 143 46 5 0 7 -11 5 -25 -3 -14 -1 -25 3 -25
19 0 7 -29 -19 -46 -56 -38 -62 -42 -162 -88 -30 -13 -49 -25 -42 -25 23 -1
136 40 188 69 34 18 51 23 51 15 0 -8 -11 -18 -24 -24 -25 -12 -23 -31 3 -31
56 0 -59 -68 -239 -142 -66 -27 -152 -65 -191 -86 -83 -42 -81 -41 -75 -46 2
-3 29 5 59 16 30 11 93 33 140 49 47 17 113 43 148 59 72 34 72 34 72 17 0
-15 39 -20 55 -7 7 6 15 -1 22 -20 10 -26 9 -32 -10 -45 -12 -8 -26 -15 -31
-15 -5 0 -41 -15 -80 -34 -39 -19 -114 -48 -166 -66 -52 -17 -108 -38 -125
-45 -16 -7 -46 -16 -65 -20 -19 -4 -43 -11 -52 -17 -24 -12 -24 -41 0 -34 9 2
37 8 62 11 48 8 202 66 318 121 65 31 154 66 205 81 11 3 17 0 17 -10 0 -9 7
-23 16 -32 9 -9 15 -17 13 -18 -35 -23 -79 -60 -76 -63 2 -3 16 0 31 5 40 16
31 -4 -20 -44 -49 -37 -56 -39 -119 -36 -22 1 -56 -5 -75 -13 -35 -15 -34 -15
62 -16 83 0 103 3 146 25 54 27 72 31 72 15 0 -5 -9 -10 -19 -10 -21 0 -37
-17 -27 -27 4 -4 12 -1 18 5 15 15 42 16 33 2 -4 -7 318 -10 959 -10 l966 0 5
22 c2 13 6 37 8 53 2 17 5 7 6 -22 1 -49 3 -53 26 -53 22 0 25 4 25 34 0 18 6
39 14 45 8 7 12 21 9 32 -4 16 -2 18 13 12 16 -6 17 -4 6 9 -10 12 -10 18 2
27 11 9 15 6 20 -14 4 -14 4 -30 1 -35 -4 -6 1 -10 10 -10 11 0 15 5 11 15 -3
8 -1 15 4 15 6 0 10 9 10 20 0 18 10 25 33 21 4 0 7 9 8 22 l0 22 10 -23 c5
-13 14 -20 20 -17 7 5 9 -20 7 -84 -3 -89 -2 -91 20 -91 22 0 22 1 22 142 0
130 6 179 12 99 3 -40 27 -65 29 -30 1 21 2 20 9 -6 6 -24 8 -26 9 -7 0 12 6
22 12 22 7 0 9 -9 6 -21 -4 -15 -2 -19 9 -15 8 3 12 2 9 -4 -3 -5 6 -17 20
-26 13 -9 22 -20 19 -25 -3 -5 0 -18 7 -30 8 -16 13 -18 19 -9 10 16 35 8 36
-11 0 -8 2 -25 2 -38 1 -13 4 -22 6 -20 10 10 18 70 24 181 6 99 10 119 26
131 17 13 18 25 13 158 -3 98 -11 162 -23 199 -22 68 -21 68 -38 44 -12 -16
-12 -22 -1 -34 11 -13 21 -80 16 -116 0 -6 -16 -17 -33 -25 -18 -7 -51 -27
-73 -45 -27 -21 -71 -41 -135 -59 -52 -15 -125 -38 -162 -52 -37 -13 -72 -22
-78 -18 -6 4 -10 -10 -10 -38 0 -31 -5 -47 -15 -51 -10 -4 -15 1 -16 17 0 21
-1 21 -9 2 -8 -19 -9 -19 -9 3 -1 13 -5 21 -10 18 -5 -3 -11 1 -15 9 -8 23
-32 18 -51 -12 l-18 -26 -18 24 c-17 23 -18 23 -37 6 -19 -18 -20 -17 -30 20
-5 21 -10 30 -11 19 -1 -13 -4 -16 -13 -9 -7 6 -25 13 -39 17 -15 3 -29 15
-32 27 -4 17 -11 20 -36 16 -26 -4 -31 -2 -31 14 0 11 -4 17 -10 14 -6 -3 -10
-2 -10 4 0 10 -38 34 -73 47 -12 5 -17 15 -15 33 3 24 6 26 43 23 40 -2 80
-35 68 -56 -3 -5 -1 -6 5 -2 7 4 12 15 12 24 0 12 3 13 12 4 7 -7 23 -12 36
-12 15 0 21 -4 16 -12 -5 -8 -2 -9 11 -4 11 4 22 1 27 -6 8 -11 11 -11 15 0 4
10 9 9 24 -4 15 -13 19 -14 19 -3 0 11 21 14 98 14 120 1 181 15 299 70 70 33
97 51 115 79 22 34 108 86 142 86 7 0 19 7 26 15 8 10 31 15 68 15 30 0 53 -2
50 -5 -3 -3 1 -36 8 -73 7 -37 14 -87 14 -112 1 -25 10 -67 20 -95 l18 -50 1
65 c0 36 -8 116 -18 178 -15 91 -23 118 -42 135 -33 31 -45 29 -272 -43 -74
-23 -144 -26 -191 -6 -18 7 -66 19 -107 26 -92 15 -107 23 -125 65 -17 41 -17
48 -4 40 6 -3 10 -15 10 -25 0 -15 6 -19 28 -18 15 1 35 7 44 13 12 8 39 8 95
1 43 -6 125 -10 183 -10 92 0 117 4 200 33 143 49 183 54 226 25 101 -69 189
-97 335 -108 36 -3 78 -11 93 -17 20 -10 29 -10 38 -1 8 8 8 15 3 21 -13 11
-204 57 -270 65 -27 4 -80 16 -117 28 -58 17 -68 24 -68 43 0 29 14 34 76 30
78 -5 427 -19 454 -18 50 2 200 26 200 32 0 21 -116 32 -379 38 l-286 6 -184
-57 c-193 -60 -268 -73 -464 -79 -106 -3 -108 -3 -103 18 15 60 44 100 144
202 116 118 122 130 122 224 0 83 28 230 64 330 21 59 36 124 40 170 l5 74
-15 -55 c-8 -30 -19 -64 -24 -75 -5 -11 -14 -41 -19 -66 -6 -25 -17 -58 -26
-75 -8 -16 -15 -39 -15 -52 0 -12 -7 -39 -16 -60 -9 -22 -18 -82 -21 -147 -3
-65 -11 -116 -18 -125 -7 -8 -16 -25 -19 -37 -8 -26 -32 -35 -92 -33 -73 2
-79 3 -86 13 -4 6 -28 12 -55 13 -97 4 -165 16 -236 39 -40 12 -82 25 -95 27
-22 3 -22 5 -25 188 -2 130 -7 192 -16 209 -9 16 -15 79 -19 183 -5 166 -22
220 -22 71 0 -78 -1 -85 -15 -67 -13 17 -14 12 -15 -57 0 -43 7 -95 15 -119
10 -29 15 -82 15 -170 0 -114 -2 -130 -21 -154 -17 -22 -29 -26 -68 -26 -26 0
-61 -6 -77 -14 -40 -19 -202 -28 -299 -17 -76 9 -95 8 -83 -4 24 -24 398 -21
406 4 2 6 25 11 53 11 45 0 49 -2 49 -24 0 -16 -8 -26 -22 -31 l-23 -8 23 -4
c28 -6 29 -19 1 -26 -23 -6 -17 -27 7 -27 8 0 14 -5 14 -11 0 -5 -4 -7 -10 -4
-5 3 -10 -1 -10 -10 0 -43 -165 -44 -309 0 -100 30 -240 59 -351 74 -47 7
-121 19 -165 28 -44 9 -129 19 -190 23 -60 4 -111 8 -112 9 -2 0 -1 16 1 34 2
17 4 40 5 50 1 22 57 23 151 2 74 -16 180 -20 143 -5 -44 18 -22 22 84 18 83
-4 109 -9 118 -22 7 -9 24 -16 38 -16 14 0 29 -4 32 -10 4 -6 -38 -10 -117
-11 -93 -1 -113 -3 -83 -10 54 -11 207 -11 224 0 7 5 10 14 7 20 -10 16 0 13
18 -5 14 -13 16 -13 16 -1 0 12 17 17 68 21 37 4 81 10 97 15 17 5 55 7 85 5
47 -4 52 -3 35 8 -14 9 -69 13 -180 14 -214 1 -267 13 -425 94 -41 21 -93 45
-115 53 -22 8 -49 18 -59 22 -13 6 -17 5 -12 -3 4 -6 44 -30 89 -53 98 -49
123 -69 105 -82 -9 -6 -5 -7 11 -3 18 4 21 2 12 -7 -16 -16 -223 -15 -278 1
-51 15 -55 27 -45 137 l7 80 39 -2 c22 -2 42 -7 46 -13 5 -8 77 -42 82 -39 8
5 48 -14 48 -22 0 -21 28 19 35 49 3 17 10 34 15 37 9 6 57 -5 260 -55 135
-33 210 -44 210 -30 0 6 -6 10 -14 10 -7 0 -36 6 -62 14 -59 17 -189 45 -265
57 -62 9 -85 18 -144 53 -37 22 -40 28 -39 65 0 23 -4 42 -10 43 -13 2 -42 5
-71 7 -15 1 -21 9 -22 36 -3 34 -2 34 29 28 22 -4 29 -3 24 5 -4 7 -18 12 -31
12 -22 0 -24 5 -30 76 -9 95 2 240 21 278 8 16 14 38 14 48 0 19 36 39 55 31
6 -2 3 2 -6 8 -25 18 -6 65 29 73 29 6 317 39 342 38 8 0 26 -3 40 -7 24 -6
24 -6 6 9 -23 19 -18 20 21 5 15 -7 38 -11 51 -10 12 0 22 -3 22 -8 0 -4 -49
-14 -110 -21 -117 -13 -139 -24 -121 -59 6 -11 11 -30 11 -43 0 -75 60 -165
128 -194 43 -18 233 -60 331 -74 41 -6 80 -15 88 -21 9 -8 13 -43 14 -118 l1
-106 15 80 c8 44 15 143 16 220 2 134 1 142 -25 197 -16 31 -27 65 -26 75 2
10 -1 62 -6 116 -10 128 1 307 20 307 8 0 14 9 14 21 0 12 8 23 18 26 31 8 87
165 76 210 -4 14 -2 23 5 23 6 0 11 -8 12 -17 0 -10 7 3 15 30 8 26 17 47 19
47 3 0 3 -34 1 -75 -2 -41 0 -75 5 -75 5 0 9 14 9 30 0 19 5 30 14 30 10 0 15
-26 20 -100 8 -114 1 -208 -20 -263 -18 -49 -20 -233 -1 -240 7 -2 13 -17 15
-33 5 -59 12 -33 12 44 0 75 2 82 26 101 15 12 32 21 38 21 20 0 53 50 66 98
22 87 30 100 53 95 21 -4 21 -4 3 11 -17 14 -17 19 -6 48 23 58 91 178 101
178 5 0 3 -13 -5 -29 -13 -25 -13 -30 -1 -34 8 -4 16 1 18 11 3 11 5 9 6 -7 0
-13 -24 -75 -56 -138 -31 -62 -54 -115 -51 -118 10 -10 97 133 117 190 11 35
23 106 27 164 5 70 10 98 16 87 5 -9 7 -20 4 -25 -3 -5 2 -11 13 -14 24 -6 35
-104 20 -184 -7 -35 -8 -85 -3 -128 4 -38 8 -86 9 -105 3 -56 5 -61 13 -56 8
5 7 41 -3 146 -5 44 -1 92 10 150 9 47 18 94 18 106 2 27 33 20 41 -9 7 -29
-3 -225 -14 -259 -6 -17 -5 -28 1 -28 12 0 12 -93 -1 -106 -8 -8 -6 -15 5 -24
8 -7 18 -10 21 -7 3 3 9 52 13 108 8 96 8 99 11 39 2 -36 2 -82 0 -104 -3 -47
15 -41 24 9 12 64 27 27 21 -53 -3 -42 -1 -99 4 -127 l9 -50 1 67 c1 75 12 92
34 51 7 -16 25 -48 39 -73 20 -37 26 -63 31 -143 3 -55 8 -102 12 -105 3 -3
17 7 30 23 18 24 23 39 20 75 -2 25 -7 106 -12 180 -6 107 -9 125 -14 85 l-6
-50 -1 53 c-1 28 2 52 6 52 4 0 14 35 21 78 21 130 52 242 67 242 7 0 18 8 23
18 9 14 10 12 11 -12 0 -23 3 -27 12 -18 8 8 12 62 11 182 -1 174 -8 246 -24
256 -5 3 -9 14 -9 24 0 10 -9 22 -20 25 -17 6 -29 25 -15 25 27 0 95 -59 95
-83 0 -11 5 -17 12 -14 7 2 12 10 11 16 -2 6 2 11 7 11 6 0 8 -11 4 -25 -5
-19 -2 -25 10 -25 9 0 16 -8 16 -17 1 -21 27 -59 36 -51 3 4 1 23 -5 44 -10
37 -8 54 9 54 5 0 9 -23 9 -50 -2 -54 10 -84 13 -34 2 51 3 54 13 54 6 0 11
-30 11 -67 1 -51 -3 -73 -17 -93 -19 -26 -26 -100 -15 -155 7 -31 -7 -65 -20
-52 -9 9 -9 191 0 205 9 16 -4 62 -18 62 -8 0 -10 -31 -8 -107 4 -97 2 -106
-12 -94 -9 7 -17 10 -17 5 -4 -27 -4 -63 0 -59 7 8 31 -16 31 -32 0 -19 -43
-13 -52 7 -4 8 -7 31 -8 50 0 28 -2 32 -11 18 -13 -23 0 -118 16 -125 7 -2 16
-21 20 -41 4 -20 12 -40 18 -44 13 -8 11 -322 -2 -347 -5 -9 -12 -38 -16 -64
l-8 -49 30 16 c17 8 33 13 36 10 13 -13 45 52 64 128 38 149 53 217 53 237 0
50 32 99 91 141 36 25 56 35 52 24 -5 -13 -2 -15 18 -9 46 14 90 68 71 87 -9
9 -45 -26 -55 -55 -2 -7 -7 -9 -11 -6 -6 6 26 62 53 96 10 11 18 49 20 88 1
16 3 17 11 5 5 -8 9 -53 9 -100 0 -47 3 -102 7 -122 4 -25 2 -43 -6 -53 -16
-20 7 -20 33 -1 14 11 15 15 5 20 -10 5 -10 7 0 12 6 3 12 15 12 27 0 18 -2
19 -10 7 -17 -27 -29 2 -20 50 5 25 6 88 3 140 -4 78 -1 106 15 157 12 33 18
70 15 81 -3 13 3 25 18 36 13 9 19 16 13 16 -6 0 -23 -9 -37 -20 -15 -12 -32
-17 -42 -14 -11 5 -25 -2 -40 -19 -14 -14 -38 -28 -55 -32 -29 -6 -30 -9 -24
-42 5 -26 4 -34 -5 -29 -6 4 -11 13 -11 21 0 7 -5 15 -11 17 -7 2 -1 16 15 32
14 16 26 34 26 41 0 18 41 52 82 69 20 9 39 20 42 25 8 13 97 31 173 36 77 6
79 -6 8 -53 -61 -40 -26 -34 60 12 54 28 67 31 145 30 104 -1 200 -20 200 -39
0 -8 5 -17 12 -21 6 -4 8 -3 4 4 -11 18 14 25 32 10 9 -8 42 -25 72 -38 30
-12 64 -29 75 -36 26 -19 55 -18 55 2 0 10 -6 14 -15 10 -9 -3 -40 17 -82 54
-104 92 -270 170 -364 170 -64 0 -210 -39 -265 -70 -28 -17 -63 -30 -76 -30
-14 0 -31 -7 -38 -15 -29 -35 -45 -11 -43 63 1 6 -3 12 -8 12 -5 0 -9 -17 -9
-37 0 -32 -2 -35 -14 -23 -11 12 -12 27 -5 70 16 99 21 105 89 107 33 1 85 9
115 18 126 36 375 9 464 -51 20 -13 64 -42 99 -65 65 -42 212 -198 212 -224 0
-8 -7 -15 -15 -15 -8 0 -15 -4 -15 -10 0 -5 7 -10 15 -10 8 0 15 -9 15 -20 0
-11 6 -20 13 -20 26 0 33 -52 21 -145 -7 -49 -17 -105 -23 -124 -10 -33 -10
-33 9 -16 10 9 24 43 30 74 7 31 27 116 46 190 39 155 39 151 18 151 -12 0
-15 6 -11 23 17 74 42 149 71 216 49 112 62 160 90 328 22 129 26 181 25 357
0 113 -2 206 -4 206 -2 0 -25 -11 -51 -25 -37 -20 -62 -25 -118 -26 -80 -1
-76 -3 44 -34 81 -21 85 -24 88 -52 3 -26 -1 -31 -24 -36 -16 -3 -37 -1 -48 3
-12 4 -62 13 -112 20 -105 14 -208 1 -394 -50 -58 -15 -137 -35 -175 -43 -81
-16 -111 -31 -215 -101 -158 -107 -270 -240 -317 -376 -8 -25 -20 -48 -25 -51
-6 -4 -12 -38 -14 -75 -5 -89 -10 -110 -30 -118 -22 -9 -27 -2 -28 38 -1 39
-26 39 -26 -1 0 -13 4 -21 10 -18 5 3 10 -1 10 -11 0 -13 -3 -14 -14 -4 -44
36 -47 172 -5 253 37 74 114 166 199 237 43 36 82 75 88 87 6 12 46 47 88 78
42 32 170 150 283 264 261 261 365 337 514 377 101 27 203 9 249 -42 9 -10 33
-68 54 -129 l38 -110 1 -270 c0 -186 -4 -282 -12 -310 -48 -156 -61 -207 -67
-262 -7 -61 -31 -140 -79 -258 -18 -44 -27 -96 -36 -200 -13 -140 -37 -249
-71 -315 -10 -19 -44 -62 -74 -95 l-57 -60 7 -135 c3 -84 11 -147 20 -167 37
-83 24 -311 -23 -379 -12 -19 -23 -39 -23 -43 0 -16 -30 -21 -55 -9 -14 6 -25
15 -25 20 0 4 -5 8 -10 8 -7 0 -7 -6 0 -20 6 -11 18 -20 26 -20 8 0 12 -4 9
-10 -3 -5 -20 -10 -36 -10 -17 0 -28 -4 -25 -9 6 -9 -15 -21 -49 -30 -3 0 1
-11 9 -24 10 -14 14 -42 13 -77 -2 -51 -4 -55 -27 -55 -17 0 -26 6 -28 20 -4
29 -32 93 -63 145 -15 25 -39 86 -53 135 -40 134 -44 142 -95 176 l-46 31
-175 -5 c-108 -4 -176 -10 -178 -17 -2 -5 -31 -10 -65 -10 -108 -1 -250 -18
-322 -40 -110 -34 -141 -59 -181 -147 -52 -113 -58 -154 -39 -235 18 -71 45
-114 37 -57 -5 37 16 145 32 158 7 6 59 17 117 26 202 30 318 72 405 149 55
49 70 78 48 97 -28 23 -13 35 61 48 75 12 117 10 165 -11 49 -21 55 -25 76
-67 11 -23 35 -56 53 -72 22 -20 31 -36 28 -49 -3 -10 -2 -20 2 -22 5 -2 11
-18 14 -35 7 -35 2 -38 -53 -34 -14 1 -36 2 -50 2 -187 0 -191 0 -196 34 -1 9
5 15 16 15 10 0 22 5 25 10 3 6 17 10 31 10 23 0 31 10 19 22 -12 11 -93 -14
-183 -57 -101 -49 -227 -95 -310 -115 -63 -14 -67 -38 -12 -57 44 -15 78 -11
270 38 256 65 363 83 442 72 37 -5 57 -28 39 -46 -5 -5 -31 -11 -57 -13 -25
-2 -52 -8 -58 -13 -6 -5 -93 -37 -192 -70 -150 -50 -200 -62 -297 -72 -91 -9
-115 -15 -107 -24 25 -31 189 -52 276 -36 81 15 249 91 283 129 40 43 67 54
111 47 45 -8 63 -25 58 -55 -3 -18 8 -24 67 -45 39 -14 81 -25 94 -25 13 0 38
-15 57 -34 33 -33 107 -58 257 -87 26 -5 78 -24 115 -42 37 -19 85 -40 107
-47 46 -15 62 -26 76 -53 9 -16 8 -18 -8 -13 -10 3 -33 8 -52 11 -19 3 -41 10
-50 14 -33 18 -239 81 -312 96 -42 8 -90 22 -107 31 -19 9 -50 14 -79 12 -44
-3 -46 -4 -30 -20 23 -22 21 -45 -3 -58 -14 -8 -20 -21 -20 -45 0 -19 -5 -35
-11 -35 -6 0 -8 -8 -5 -17 3 -10 7 -50 10 -90 3 -39 8 -78 12 -86 7 -19 35
-27 99 -27 56 0 95 -9 95 -20 0 -4 -17 -15 -37 -24 -21 -8 -49 -24 -63 -35
l-24 -19 44 -12 c41 -11 43 -13 25 -26 -10 -8 -22 -14 -27 -14 -4 0 -8 -4 -8
-10 0 -18 45 -40 116 -56 108 -25 170 -52 171 -74 2 -18 0 -18 -45 1 -50 22
-186 38 -194 23 -6 -10 12 -121 43 -271 11 -56 27 -155 34 -220 18 -155 78
-504 91 -525 5 -8 474 -12 474 -4 0 2 3 11 6 20 4 11 1 16 -11 16 -14 0 -15 3
-5 15 7 8 20 15 29 15 14 0 14 -2 1 -11 -11 -7 0 -8 37 -4 65 8 92 0 103 -31
9 -22 15 -24 80 -24 l70 0 0 949 0 949 -37 6 c-21 3 -141 8 -268 11 -164 4
-239 10 -260 20 -16 7 -42 16 -57 19 -19 4 -26 11 -22 21 4 11 -1 15 -17 16
l-24 1 25 8 c14 4 168 8 343 9 l317 1 0 1279 0 1279 -67 7 c-114 10 -113 10
-113 58 0 62 9 71 56 58 48 -13 124 -14 124 -2 0 5 -12 11 -27 13 -25 3 -29
10 -50 82 -21 73 -34 229 -20 243 3 3 26 8 52 10 43 5 45 7 45 38 l0 32 -69 6
c-80 7 -106 20 -122 62 -7 16 -30 69 -52 118 l-40 87 -349 0 c-275 0 -349 -3
-346 -12 6 -18 75 -55 116 -63 19 -3 58 -17 87 -30 60 -26 77 -60 51 -100 -23
-35 -68 -38 -138 -10 -34 14 -70 25 -79 25 -21 0 -39 29 -39 62 0 13 -12 47
-27 76 l-27 52 -186 -2 -185 -3 -3 -70 c-3 -106 -7 -115 -45 -115 -51 0 -106
19 -117 40 -6 11 -13 49 -17 85 l-6 65 -177 0 -178 0 -6 -34 c-13 -68 -116
-59 -116 10 0 24 -2 24 -85 24 -50 0 -85 -4 -85 -10 0 -5 -13 -10 -30 -10 -16
0 -30 5 -30 10 0 6 -11 10 -24 10 -30 0 -39 -29 -20 -65 28 -55 26 -86 -10
-172 -46 -112 -99 -178 -154 -193 -52 -16 -209 -1 -245 23 -15 9 -29 34 -37
63 -13 45 -12 48 9 65 12 10 38 21 58 25 32 6 38 3 60 -25 26 -33 44 -36 116
-25 53 9 63 32 37 90 -22 48 -42 142 -31 148 3 2 24 7 46 11 51 9 75 22 75 40
0 13 -35 15 -234 15 l-235 0 -3 -32 c-2 -28 -8 -34 -31 -36 -35 -4 -57 13 -57
44 l0 24 -150 0 -150 0 0 -23 c0 -39 -31 -131 -48 -144 -20 -16 -103 -17 -137
-1 -33 15 -54 55 -62 119 l-6 49 -166 -1 c-172 -1 -176 -6 -32 -31 86 -15 105
-33 120 -111 7 -41 6 -49 -10 -57 -13 -7 -27 -5 -52 10 l-35 21 -53 -21 c-30
-11 -62 -20 -72 -20 -10 0 -34 -12 -54 -27 -34 -26 -36 -26 -49 -8 -22 30 -18
74 9 86 12 6 33 25 46 41 l25 31 -29 23 c-16 12 -32 21 -36 18 -12 -7 -59 18
-59 33 0 10 -26 13 -115 13 -101 0 -115 -2 -124 -19 -20 -36 -231 -105 -254
-82 -6 6 -10 31 -8 56 l2 45 -36 0 c-36 0 -35 1 -40 -62 0 -9 -4 -20 -7 -24
-4 -3 -5 -20 -2 -38 4 -24 3 -28 -5 -16 -9 12 -10 8 -6 -15 3 -16 -1 -50 -9
-75 -8 -25 -15 -38 -16 -30 -8 83 -17 110 -41 110 -10 0 -18 4 -17 9 2 5 -1
10 -7 11 -5 0 -13 -9 -17 -22 -6 -22 -6 -22 -7 4 -2 43 -21 44 -22 1 0 -21 -4
-47 -9 -58 -8 -19 -9 -19 -9 3 -1 19 -5 21 -25 16 -19 -4 -26 -1 -31 15 -7 23
-35 29 -35 7 0 -8 -7 -16 -15 -20 -17 -6 -20 5 -5 20 6 6 3 14 -10 22 -16 10
-20 10 -20 -2 0 -23 -28 -27 -35 -5 -4 11 -12 18 -18 17 -7 -1 -21 2 -32 8
-28 14 -48 12 -52 -6 -4 -12 -3 -12 5 -2 8 11 10 11 14 0 3 -7 -1 -19 -8 -26
-8 -7 -14 -8 -14 -3 0 5 -20 39 -45 75 -25 37 -45 71 -45 76 0 6 -22 10 -50
10 -27 0 -50 -4 -50 -9z m2028 -51 c31 -19 43 -40 21 -40 -6 0 -8 -9 -4 -20 6
-19 3 -18 -44 6 -40 20 -51 30 -51 50 0 31 31 32 78 4z m-898 -66 c0 -14 -4
-23 -10 -19 -5 3 -10 15 -10 26 0 10 5 19 10 19 6 0 10 -12 10 -26z m40 16 c0
-5 -2 -10 -4 -10 -3 0 -8 5 -11 10 -3 6 -1 10 4 10 6 0 11 -4 11 -10z m1831
-163 c-22 -56 -78 -24 -88 51 -4 26 1 39 21 59 14 14 26 23 26 19 0 -4 10 3
23 14 l22 21 3 -69 c2 -38 -2 -81 -7 -95z m-921 123 c0 -5 -4 -10 -10 -10 -5
0 -10 5 -10 10 0 6 5 10 10 10 6 0 10 -4 10 -10z m1439 -10 c14 0 41 -60 41
-93 0 -49 -16 -58 -102 -55 l-73 3 -3 40 c-2 32 2 45 20 62 32 30 80 54 96 48
8 -3 17 -5 21 -5z m-2956 -21 c-4 -15 -8 -17 -14 -8 -6 11 4 28 18 29 0 0 -1
-9 -4 -21z m7 -39 c0 -5 -4 -10 -10 -10 -5 0 -10 5 -10 10 0 6 5 10 10 10 6 0
10 -4 10 -10z m4026 0 c23 -8 29 -17 30 -39 1 -39 -36 -59 -60 -32 -16 18 -22
62 -9 74 8 9 5 9 39 -3z m-2534 -36 c15 -8 28 -21 28 -28 0 -23 -28 -39 -56
-32 -45 12 -64 -1 -63 -42 0 -31 2 -33 9 -16 9 24 43 34 80 23 20 -6 17 -7
-17 -8 -53 -1 -57 -21 -14 -75 29 -36 30 -36 41 -16 6 11 15 18 21 15 5 -4 9
6 9 20 0 20 4 26 15 21 8 -3 19 2 23 11 6 10 16 14 27 9 13 -5 16 -13 11 -37
-3 -18 -7 -75 -7 -128 -1 -53 -3 -89 -6 -79 -6 22 -31 31 -29 10 0 -9 -4 -16
-10 -15 -7 1 -10 -6 -7 -20 5 -22 5 -22 -10 -2 -8 11 -22 49 -31 85 -27 105
-69 147 -172 169 -33 6 -68 16 -79 21 -11 5 -40 11 -65 15 -59 7 -74 17 -65
44 5 16 26 27 93 47 48 14 92 28 97 30 21 8 150 -8 177 -22z m-1116 -50 c27
-15 67 -44 90 -63 92 -81 426 -444 509 -555 145 -192 158 -208 195 -246 63
-64 86 -103 139 -226 39 -93 51 -132 51 -172 0 -53 -8 -63 -30 -37 -7 8 -19
15 -26 15 -8 0 -16 17 -21 42 -3 24 -8 37 -11 30 -10 -30 -21 -6 -28 58 -4 39
-11 73 -15 76 -5 3 -9 13 -9 23 0 10 -16 34 -35 54 -19 20 -35 33 -35 30 0 -3
-7 0 -16 7 -17 15 -54 87 -54 107 0 7 -4 12 -9 10 -5 -1 -21 14 -36 33 -53 71
-115 128 -133 123 -11 -2 -32 7 -51 23 -17 14 -35 23 -39 19 -10 -10 58 -65
81 -65 10 0 29 -11 42 -25 26 -25 32 -45 14 -45 -5 0 -7 5 -4 10 3 6 0 10 -8
10 -8 0 -14 -8 -13 -17 1 -17 -20 -18 -306 -18 -281 0 -307 1 -317 18 -13 19
-1 23 17 5 9 -9 15 -9 23 -1 8 8 5 13 -12 19 -13 4 -27 8 -31 9 -5 0 -8 5 -8
10 1 23 81 37 228 42 84 3 150 9 145 13 -18 17 -194 35 -310 32 -82 -2 -123 0
-123 7 0 6 11 13 25 17 32 8 25 19 -17 29 -23 5 -27 9 -15 12 9 2 17 13 17 23
0 11 -8 24 -17 29 -27 16 53 14 140 -3 110 -22 211 -36 264 -36 26 -1 73 -10
103 -21 30 -11 72 -24 93 -30 21 -5 51 -19 68 -31 16 -12 31 -19 34 -16 8 7
-50 62 -83 79 -15 7 -39 21 -54 31 -27 19 -91 29 -308 48 -238 21 -310 46
-310 106 0 42 11 49 44 23 37 -29 32 -6 -9 48 -27 35 -35 55 -35 87 0 78 5 84
58 75 26 -4 67 -15 91 -23 52 -19 74 -20 69 -4 -4 12 -125 51 -233 74 -38 8
-73 20 -77 27 -5 7 -8 -1 -8 -19 0 -17 -9 -52 -20 -76 -11 -25 -22 -70 -26
-101 -4 -31 -10 -57 -13 -57 -4 0 -8 -31 -9 -70 -2 -43 1 -70 8 -70 5 0 10 -5
10 -11 0 -5 -4 -7 -10 -4 -6 4 -10 -10 -10 -34 0 -21 -3 -48 -6 -58 -5 -15 -4
-15 5 -3 9 13 11 13 11 -2 0 -10 -4 -18 -10 -18 -11 0 -2 -226 10 -250 4 -8
14 -49 21 -92 10 -61 16 -75 28 -71 12 3 12 2 -1 -7 -33 -21 -11 -116 22 -95
5 3 10 -2 11 -12 0 -11 3 -13 6 -5 4 10 8 10 20 0 12 -9 89 -13 312 -15 192
-1 312 -6 341 -14 25 -6 71 -13 103 -15 43 -2 63 -8 72 -21 27 -36 57 -104 60
-136 2 -18 10 -65 19 -105 19 -89 20 -152 3 -176 -11 -16 -15 -16 -25 -3 -14
17 -38 104 -45 163 -6 49 -36 111 -69 140 -38 35 -80 52 -174 70 -77 14 -107
15 -224 5 -74 -7 -155 -13 -179 -15 -44 -4 -129 5 -184 19 -26 7 -27 6 -17
-19 5 -14 11 -42 14 -62 2 -20 9 -40 16 -44 7 -4 10 -15 7 -23 -4 -10 8 -8 41
10 60 32 184 59 352 78 181 20 216 19 224 -2 3 -10 9 -23 12 -30 3 -8 -11 -14
-43 -18 -56 -7 -78 -11 -365 -70 -119 -25 -231 -45 -248 -45 -27 0 -30 3 -30
33 0 17 -5 48 -10 67 -17 54 -57 297 -64 382 -4 42 -13 100 -21 130 -34 130
-38 597 -6 655 6 10 15 43 21 73 10 53 30 100 30 73 0 -7 5 -13 12 -13 6 0 9
3 5 6 -12 12 23 64 53 79 83 43 191 43 266 -1z m3331 -7 c4 -5 0 -13 -10 -18
-9 -6 -17 -17 -17 -24 0 -8 -7 -15 -15 -15 -26 0 -37 -39 -31 -102 8 -70 2
-94 -26 -109 -29 -16 -38 2 -38 81 -1 36 -7 83 -15 105 -8 22 -15 53 -15 69
l0 28 79 -3 c44 -2 83 -8 88 -12z m-239 -24 c18 -25 15 -71 -7 -82 -10 -6 -21
-8 -23 -5 -3 3 -8 -1 -10 -8 -7 -19 9 -58 24 -59 22 -1 50 -7 54 -12 6 -6
-225 2 -243 8 -14 5 -18 91 -7 132 13 48 180 69 212 26z m282 7 c0 -5 -4 -10
-9 -10 -6 0 -13 5 -16 10 -3 6 1 10 9 10 9 0 16 -4 16 -10z m-575 -54 c30 -51
37 -142 13 -157 -27 -18 -69 -9 -99 20 -25 25 -29 36 -27 75 2 30 8 46 16 46
8 0 16 9 19 20 3 11 9 18 13 15 4 -3 13 2 20 10 7 8 14 15 16 15 2 0 15 -20
29 -44z m1239 38 c9 -3 13 -11 10 -16 -4 -6 -1 -14 6 -18 21 -13 2 -48 -30
-55 -54 -12 -85 25 -64 79 6 16 48 21 78 10z m-1421 -21 c13 -8 8 -110 -7
-122 -8 -7 -34 -13 -58 -14 l-43 -2 3 45 c1 25 5 60 8 78 5 33 6 33 47 27 23
-4 45 -9 50 -12z m1037 -4 c0 -6 -4 -7 -10 -4 -5 3 -10 11 -10 16 0 6 5 7 10
4 6 -3 10 -11 10 -16z m-2854 -16 c44 -21 49 -39 29 -107 -12 -40 -21 -56 -34
-56 -18 0 -82 61 -100 97 -12 25 -15 76 -4 87 10 10 67 -1 109 -21z m1660 20
c-10 -11 -37 -12 -30 -2 3 5 12 9 21 9 9 0 13 -3 9 -7z m-1358 -25 c11 -14 10
-16 -7 -11 -12 3 -17 11 -14 19 3 8 6 14 7 12 1 -2 7 -11 14 -20z m2052 -48
c0 -16 -4 -30 -9 -30 -4 0 -7 12 -4 28 3 24 2 25 -6 6 -11 -26 -31 -40 -31
-23 0 15 29 49 42 49 4 0 8 -13 8 -30z m-1260 -13 c19 -6 52 -22 73 -34 21
-13 42 -23 48 -23 5 0 6 -12 3 -26 -5 -19 -4 -25 5 -20 6 4 11 16 11 28 0 17
4 19 28 13 40 -10 83 -37 102 -65 24 -34 32 -84 17 -104 -12 -16 -16 -16 -65
3 -29 12 -62 21 -72 21 -11 0 -47 -19 -80 -42 -32 -24 -74 -52 -91 -63 l-33
-20 0 -88 c-1 -81 -3 -90 -25 -108 -41 -33 -63 -22 -77 41 -20 85 -19 90 21
90 38 0 46 14 17 29 -11 6 -29 37 -41 69 -12 33 -27 64 -34 69 -6 5 -40 18
-74 28 -72 21 -153 17 -178 -9 -10 -9 -16 -18 -14 -20 2 -1 29 -22 61 -45 31
-23 63 -57 72 -76 18 -37 21 -120 6 -159 -12 -33 -87 -105 -116 -112 -13 -3
-24 -9 -24 -13 0 -9 16 -33 21 -31 9 3 39 -13 39 -21 0 -4 -6 -6 -14 -3 -10 4
-15 -6 -17 -39 -2 -24 -3 -51 -1 -60 5 -26 22 -20 22 8 0 29 14 33 30 8 10
-17 10 -16 9 2 -2 34 0 38 17 24 9 -7 26 -18 38 -24 24 -12 51 -103 42 -140
-7 -29 -25 -35 -111 -42 -83 -6 -102 4 -113 62 -12 70 -9 268 6 273 6 2 12 9
12 16 0 15 123 136 139 136 29 0 0 27 -57 54 -51 24 -64 35 -74 65 -16 48 -12
211 6 229 8 8 44 20 82 28 37 8 93 25 123 38 81 34 172 64 201 65 14 0 41 -5
60 -12z m-850 -11 c18 -23 9 -61 -15 -61 -11 1 -24 -5 -28 -12 -11 -18 -30
-16 -23 2 4 10 -1 15 -15 15 -15 0 -19 -5 -15 -15 5 -15 -14 -19 -74 -16 -20
2 -22 0 -10 -8 12 -9 11 -11 -7 -11 -12 0 -24 4 -27 9 -6 8 23 71 44 96 17 21
153 21 170 1z m2050 -6 c0 -5 -5 -10 -11 -10 -5 0 -7 5 -4 10 3 6 8 10 11 10
2 0 4 -4 4 -10z m-427 -69 c5 -1 5 -5 2 -11 -3 -6 1 -7 9 -4 13 5 16 -2 16
-34 0 -32 8 -48 40 -85 40 -45 41 -47 44 -136 3 -73 2 -88 -9 -78 -7 7 -11 17
-8 23 2 7 0 15 -6 19 -6 3 -11 1 -11 -4 0 -6 -7 -11 -15 -11 -9 0 -15 -10 -15
-26 0 -19 -4 -25 -15 -20 -8 3 -15 1 -15 -4 0 -17 28 -11 39 7 11 21 26 11 18
-12 -8 -20 -56 -19 -86 1 -22 16 -23 22 -18 90 4 60 3 74 -9 74 -8 0 -14 -8
-14 -18 0 -43 -95 -83 -201 -85 -81 -2 -93 13 -97 122 -4 116 6 132 83 149 33
7 94 21 135 31 41 10 86 17 100 15 14 -1 29 -3 33 -3z m-1383 -50 c0 -9 -7 -3
-15 13 -19 36 -19 47 0 22 8 -11 15 -27 15 -35z m1764 43 c27 -10 18 -48 -24
-104 -22 -29 -40 -56 -40 -60 0 -15 -104 -110 -120 -110 -33 0 -33 20 0 61 17
22 49 74 71 117 49 96 69 113 113 96z m-2340 -40 c152 -42 201 -72 221 -134 4
-11 29 -32 56 -46 55 -28 69 -51 69 -119 0 -53 -29 -107 -74 -134 -18 -11 -47
-36 -65 -56 -48 -53 -71 -46 -94 30 -34 111 -47 141 -88 203 -24 38 -44 84
-51 118 -15 76 -30 84 -166 91 -95 5 -111 8 -115 24 -6 24 12 46 43 53 48 9
173 -5 264 -30z m264 9 c-10 -2 -28 -2 -40 0 -13 2 -5 4 17 4 22 1 32 -1 23
-4z m1102 -231 c61 -16 65 -19 68 -48 5 -55 -24 -70 -128 -64 -52 2 -63 18
-55 79 8 59 12 60 115 33z m-2421 -101 c1 -48 -5 -35 -12 24 -4 32 -3 43 3 30
5 -11 9 -35 9 -54z m2977 -46 c11 -27 -10 -60 -73 -118 -56 -51 -106 -78 -119
-64 -3 2 -10 35 -16 73 -10 66 -9 69 12 84 51 34 186 52 196 25z m-1355 -5
c14 -8 19 -21 19 -48 -1 -52 -21 -76 -57 -67 -39 10 -53 23 -53 54 0 33 18 58
45 64 11 3 21 5 23 6 2 0 12 -4 23 -9z m758 -11 c52 -32 61 -44 61 -88 0 -35
-3 -41 -25 -47 -19 -5 -35 2 -68 28 -23 19 -52 40 -64 47 -22 11 -32 58 -16
74 14 14 79 6 112 -14z m-183 -67 c45 -13 54 -29 54 -91 0 -40 -9 -36 -14 5
-2 16 -4 34 -5 39 -1 6 -10 -3 -21 -20 -18 -27 -25 -27 -21 -2 1 5 -6 7 -16 5
-11 -2 -23 6 -31 22 l-12 25 4 -27 c4 -33 -9 -37 -24 -8 -6 11 -17 20 -25 20
-12 0 -12 -4 0 -27 8 -15 12 -29 10 -31 -7 -7 -25 9 -25 24 0 8 -5 14 -10 14
-6 0 -8 -11 -4 -25 5 -20 3 -24 -10 -19 -8 3 -15 9 -14 12 3 26 -3 74 -9 68
-11 -11 -11 -56 0 -56 5 0 5 -6 -1 -13 -8 -10 -5 -16 11 -27 12 -8 26 -13 31
-12 4 2 14 -2 22 -9 7 -6 17 -8 22 -6 4 3 14 2 22 -4 11 -6 1 -9 -31 -9 -37 0
-52 6 -76 29 -34 32 -52 103 -32 124 15 16 151 16 205 -1z m1812 -90 l-3 -47
-55 -7 c-30 -3 -107 -6 -170 -7 -137 -1 -250 -11 -250 -21 0 -5 48 -11 108
-16 96 -6 247 3 346 23 l29 5 -5 -103 c-3 -57 -11 -122 -16 -144 -6 -22 -14
-67 -18 -99 -3 -36 -9 -54 -14 -46 -5 7 -13 9 -21 5 -8 -5 -6 1 4 12 23 26 22
36 -2 23 -25 -13 -31 -13 -31 0 0 6 -15 27 -32 46 -18 20 -37 43 -41 52 -6 12
-3 11 7 -2 19 -24 32 -15 17 12 -9 17 -7 21 12 26 21 5 21 6 -11 29 -18 14
-72 34 -127 47 -87 21 -102 22 -202 12 -59 -6 -142 -14 -185 -17 -69 -5 -110
-17 -293 -82 -44 -15 -106 -59 -70 -49 11 3 72 23 135 45 120 42 145 48 135
31 -3 -5 -15 -10 -26 -10 -10 0 -19 -4 -19 -10 0 -5 8 -9 18 -8 9 1 31 0 47
-1 30 -3 30 -3 5 -11 -14 -4 -45 -6 -70 -4 -37 3 -40 2 -15 -5 l30 -8 -40 -8
c-22 -4 -60 -18 -85 -30 -40 -20 -180 -58 -187 -51 -2 1 -6 24 -9 50 -9 66 14
114 74 150 26 16 58 39 72 52 14 12 59 41 100 65 41 23 77 45 80 49 11 16 109
50 190 66 58 12 158 19 312 23 124 3 238 7 253 8 25 3 26 1 23 -45z m-2478 28
c0 -5 6 -7 13 -4 17 6 41 -21 32 -37 -4 -6 -2 -15 5 -19 7 -4 15 -38 18 -75 6
-80 -1 -87 -84 -91 -41 -1 -57 2 -70 17 -16 18 -16 24 6 112 12 50 27 95 34
99 16 11 46 10 46 -2z m-964 -45 c65 -8 188 -15 272 -15 l152 0 30 -47 c18
-28 26 -51 21 -56 -12 -12 -493 -9 -606 4 -116 13 -195 26 -172 28 21 1 20 -1
3 49 -8 22 -13 42 -11 44 11 10 206 6 311 -7z m2011 -12 c12 -3 25 -13 28 -24
8 -24 -11 -94 -31 -114 -18 -18 -32 -12 -44 21 -5 13 -26 34 -47 47 -49 31
-67 53 -59 73 5 14 16 15 69 10 34 -4 72 -10 84 -13z m-2257 -149 c8 -3 105
-9 215 -14 215 -8 296 -23 370 -68 61 -37 113 -101 100 -121 -3 -6 0 -9 7 -6
8 3 23 -7 34 -22 26 -36 64 -152 64 -197 0 -30 -3 -33 -21 -29 -12 3 -25 0
-29 -7 -12 -20 -30 -2 -30 30 0 16 -11 64 -25 106 -14 42 -25 86 -25 98 -1 42
-147 93 -271 95 -31 0 -85 5 -120 10 -55 9 -374 36 -508 43 -27 2 -46 8 -49
17 -3 8 0 11 7 7 10 -7 15 5 12 30 -1 12 58 33 109 37 43 3 140 -2 160 -9z
m684 -74 c42 -28 76 -52 76 -55 0 -2 3 -10 6 -19 10 -26 -11 -18 -26 9 -11 20
-21 25 -50 25 -26 0 -43 7 -60 25 -13 14 -29 25 -37 25 -7 0 -13 9 -13 20 0
31 20 25 104 -30z m589 -2 c50 -20 57 -26 54 -45 -3 -18 0 -23 16 -23 16 0 18
-3 10 -11 -8 -8 -26 -7 -68 6 -71 23 -105 49 -105 82 0 29 0 29 93 -9z m1957
2 c0 -13 -11 -13 -30 0 -12 8 -11 10 8 10 12 0 22 -4 22 -10z m154 -45 c39
-21 60 -20 51 3 -5 13 -3 14 6 5 6 -6 9 -19 6 -27 -7 -18 -33 -21 -42 -6 -3 6
-15 10 -26 10 -10 0 -19 4 -19 9 0 5 -10 12 -22 14 -20 4 -20 4 -3 6 11 0 33
-6 49 -14z m-367 -1 c-3 -3 -12 -4 -19 -1 -8 3 -5 6 6 6 11 1 17 -2 13 -5z
m473 -4 c0 -5 -2 -10 -4 -10 -3 0 -8 5 -11 10 -3 6 -1 10 4 10 6 0 11 -4 11
-10z m-183 -51 c54 -46 69 -70 59 -94 -5 -14 -16 -16 -64 -12 -32 3 -70 9 -84
12 -15 4 -36 1 -50 -6 -14 -8 -64 -14 -128 -15 -58 -1 -156 -12 -219 -23 -123
-23 -216 -28 -131 -8 26 6 37 12 28 14 -10 3 -18 11 -18 19 0 19 -50 8 -67
-14 -18 -22 -16 -6 3 23 10 15 29 26 56 30 22 4 74 20 116 35 100 36 218 54
301 45 35 -4 70 -9 78 -12 7 -3 13 -1 13 5 0 5 -10 13 -22 17 -22 7 -22 8 7
15 57 15 74 10 122 -31z m222 -19 c49 -51 72 -90 53 -90 -15 0 -142 122 -136
131 10 16 45 -1 83 -41z m-2062 -15 c-9 -7 -17 -22 -17 -33 0 -30 -17 -36 -85
-34 -33 1 -67 -3 -75 -8 -11 -7 -6 -10 19 -10 l34 0 -5 -64 c-5 -52 -3 -63 8
-59 13 5 19 -16 16 -57 -6 -90 -14 -143 -27 -184 -8 -27 -15 -69 -15 -93 0
-31 -4 -43 -14 -43 -20 0 -24 -9 -30 -70 -6 -61 -7 -63 -31 -54 -16 6 -17 17
-11 93 3 47 10 111 15 141 5 30 10 146 10 258 l1 202 33 1 c17 0 57 6 87 13
30 7 66 12 79 13 22 0 23 -1 8 -12z m302 -47 c0 -13 -4 -32 -8 -42 -7 -18 -8
-18 -14 -2 -4 10 -3 26 3 35 5 10 6 21 3 25 -3 3 -1 6 5 6 7 0 12 -10 11 -22z
m426 -28 c-21 -8 -53 -40 -41 -40 4 0 4 -5 0 -11 -4 -7 -17 -1 -35 17 -15 15
-26 31 -23 36 3 4 31 8 62 7 40 0 51 -3 37 -9z m1279 -58 c4 -12 5 -22 2 -22
-6 0 -46 65 -46 76 0 14 37 -31 44 -54z m-1678 -13 c-6 -63 -18 -89 -42 -89
-10 0 -14 13 -14 43 0 32 7 51 28 75 15 17 28 32 30 32 2 0 1 -28 -2 -61z
m297 31 c19 -32 63 -60 95 -60 14 0 22 -15 36 -69 10 -37 16 -79 13 -92 -3
-20 -5 -18 -6 7 -1 31 -22 60 -34 47 -4 -3 -7 1 -7 10 0 10 -4 17 -10 17 -5 0
-10 8 -10 18 0 13 -2 14 -9 4 -6 -10 -13 -11 -34 -1 -15 7 -27 16 -27 21 0 4
-7 8 -16 8 -40 0 -92 88 -67 113 18 18 59 6 76 -23z m-683 10 c0 -5 -4 -10
-10 -10 -5 0 -10 5 -10 10 0 6 5 10 10 10 6 0 10 -4 10 -10z m1917 -10 c84
-13 108 -27 115 -65 2 -16 -2 -19 -22 -17 -14 2 -61 6 -105 10 -53 5 -74 10
-61 15 18 7 18 8 -4 29 -12 12 -39 27 -59 35 l-36 13 45 -3 c25 -3 82 -10 127
-17z m-1857 -43 c-1 -20 -2 -21 -14 -5 -7 10 -16 15 -19 11 -4 -3 -7 -1 -7 5
0 12 21 22 33 15 4 -2 7 -14 7 -26z m370 15 c0 -13 -12 -22 -22 -16 -10 6 -1
24 13 24 5 0 9 -4 9 -8z m81 -31 c20 -16 21 -21 10 -35 -7 -9 -17 -14 -21 -11
-4 3 -10 -4 -13 -14 -3 -14 -1 -18 9 -14 8 3 14 -1 14 -9 0 -22 -12 -29 -26
-17 -17 14 -40 1 -25 -14 6 -6 11 -18 11 -27 0 -9 11 -31 24 -49 14 -19 22
-40 18 -49 -4 -11 -9 -6 -17 19 -9 25 -18 35 -37 37 -19 2 -28 -2 -31 -15 -3
-12 -6 -8 -7 12 -5 49 1 97 16 153 17 58 35 66 75 33z m-721 -23 c-1 -17 -78
-70 -91 -63 -15 10 -10 47 9 61 22 17 82 18 82 2z m810 -18 c31 -22 63 -77 79
-135 8 -30 7 -40 -4 -52 -13 -13 -15 -12 -15 6 0 11 -9 22 -20 26 -11 3 -20
12 -20 18 0 7 -9 23 -20 37 -11 14 -20 31 -20 39 0 8 -9 25 -21 37 -20 22 -19
44 3 44 5 0 23 -9 38 -20z m-1530 -20 c0 -5 18 -11 41 -15 35 -6 43 -12 56
-44 17 -39 31 -126 25 -153 -3 -14 -10 -10 -38 18 -19 20 -34 33 -34 29 0 -10
93 -149 102 -153 4 -2 8 -8 8 -14 0 -14 -48 22 -112 85 -31 30 -71 60 -89 67
-37 15 -99 61 -99 72 0 4 10 7 23 5 14 -1 22 3 22 13 0 10 -7 14 -20 11 -11
-1 -40 -4 -65 -5 -63 -3 -146 -39 -142 -61 2 -11 -2 -15 -10 -13 -7 3 -29 1
-48 -4 -41 -11 -202 -89 -212 -103 -4 -5 -16 -1 -29 10 l-22 20 7 -27 c3 -15
2 -30 -4 -33 -5 -3 -11 -16 -11 -28 -1 -12 -5 1 -9 30 -8 56 0 119 15 117 6
-1 16 7 23 17 18 26 78 55 132 64 66 10 278 63 327 82 41 15 46 15 94 -6 l51
-21 -5 30 c-5 23 -3 28 8 23 8 -3 15 -9 15 -13z m290 -41 c0 -5 -4 -9 -10 -9
-5 0 -10 7 -10 16 0 8 5 12 10 9 6 -3 10 -10 10 -16z m328 3 c10 -10 22 -26
25 -36 6 -15 2 -14 -23 4 -17 12 -30 28 -30 36 0 19 6 18 28 -4z m1103 -63
l-9 -34 -1 31 c-1 17 2 34 6 37 12 13 14 -1 4 -34z m-1431 22 c0 -6 -4 -13
-10 -16 -5 -3 -10 1 -10 9 0 9 5 16 10 16 6 0 10 -4 10 -9z m1360 -17 c0 -8
-4 -12 -10 -9 -5 3 -10 13 -10 21 0 8 5 12 10 9 6 -3 10 -13 10 -21z m265 -18
c0 -33 -15 -46 -15 -14 0 20 7 38 15 38 0 0 1 -11 0 -24z m-85 -2 c0 -8 -4
-12 -10 -9 -5 3 -10 10 -10 16 0 5 5 9 10 9 6 0 10 -7 10 -16z m-1995 -28 c60
-28 94 -63 105 -108 4 -18 11 -42 15 -53 5 -11 5 -17 0 -13 -4 4 -14 3 -21 -3
-15 -13 -54 5 -104 50 -65 57 -65 31 0 -29 54 -50 61 -60 43 -60 -21 0 -35
-30 -15 -30 18 -1 112 -98 112 -116 0 -28 30 -114 40 -114 4 0 5 20 2 45 -4
37 -2 45 12 45 16 0 23 -19 28 -74 2 -23 12 -34 44 -50 23 -12 47 -26 55 -32
8 -6 32 -14 53 -17 41 -7 59 -23 51 -46 -5 -12 -3 -12 10 -1 9 8 14 22 12 32
-3 10 -4 18 -2 18 8 0 34 -66 34 -85 -1 -11 5 -68 12 -127 7 -59 10 -110 6
-114 -3 -3 -43 4 -88 16 -97 26 -152 63 -144 97 6 24 3 27 -38 37 -36 8 -33
-13 4 -31 13 -7 18 -13 11 -13 -23 0 -52 20 -52 36 0 8 -4 13 -9 10 -5 -4 -25
10 -45 29 -40 39 -46 51 -16 35 11 -6 20 -15 20 -21 0 -6 5 -7 10 -4 6 3 13
-1 16 -9 3 -9 11 -16 16 -16 6 0 8 7 4 15 -3 8 -1 15 4 15 15 0 83 -41 96 -58
6 -8 16 -12 22 -8 7 4 12 1 12 -8 0 -9 -7 -16 -16 -16 -9 0 -14 -6 -11 -12 2
-7 14 -12 26 -10 18 2 21 -2 16 -17 -5 -16 -2 -18 16 -14 12 3 24 0 29 -7 11
-18 29 -3 23 20 -4 16 1 21 27 26 l32 7 -21 20 c-11 12 -35 26 -53 31 -42 14
-82 81 -58 96 8 5 17 10 20 10 10 0 67 -56 72 -71 3 -8 8 -11 12 -7 17 15 -83
126 -109 120 -6 -1 -22 8 -35 20 -23 22 -83 58 -96 58 -3 0 -2 -4 1 -10 11
-18 -25 2 -60 33 -19 17 -35 38 -35 47 0 9 -13 34 -30 56 -20 27 -30 51 -30
76 0 27 -6 42 -20 50 -11 7 -20 18 -20 25 0 7 -4 13 -10 13 -5 0 -10 -4 -10
-9 0 -5 -5 -22 -10 -36 l-10 -27 -22 28 c-33 42 -45 54 -57 54 -15 0 -14 -7 7
-29 32 -36 42 -50 42 -59 0 -6 9 -12 19 -15 11 -3 20 -13 19 -23 0 -11 7 -39
16 -64 11 -29 13 -46 6 -48 -15 -5 -12 -22 5 -22 16 0 21 -25 7 -34 -13 -8
-44 34 -37 52 8 21 -12 32 -57 32 -46 0 -51 -18 -5 -22 l32 -3 5 -70 c3 -41 8
-65 13 -57 13 19 27 14 27 -11 0 -12 9 -30 20 -40 11 -9 20 -24 20 -32 0 -8 7
-15 16 -15 8 0 13 -4 10 -9 -9 -13 -65 10 -60 24 3 7 -2 18 -10 25 -14 11 -15
7 -10 -31 6 -49 28 -73 61 -64 12 3 25 1 28 -5 3 -5 19 -10 34 -10 16 0 44
-11 64 -24 19 -13 44 -27 56 -31 12 -3 42 -22 67 -41 44 -34 164 -73 222 -74
21 0 49 -40 43 -63 -1 -5 7 -11 17 -14 20 -5 58 -60 48 -70 -3 -3 -1 -14 4
-24 15 -28 -5 -32 -47 -9 -21 11 -45 20 -55 20 -22 0 -180 49 -193 61 -25 19
-118 31 -235 30 -91 -1 -139 3 -177 15 -49 16 -55 15 -98 -2 -35 -14 -53 -31
-76 -67 -16 -26 -29 -52 -29 -57 0 -12 -3 -12 -24 -4 -9 3 -16 10 -16 16 0 5
5 6 10 3 6 -3 10 -2 10 4 0 5 -6 11 -12 14 -10 3 -10 8 -1 23 7 11 30 51 52
89 21 39 49 82 61 98 24 30 47 38 31 10 -16 -29 14 -73 47 -72 22 1 23 2 5 6
-35 7 -46 27 -25 46 21 19 124 24 166 8 39 -16 45 -6 7 13 -16 9 -48 16 -70
16 -29 0 -48 7 -67 25 -18 16 -39 25 -60 25 -19 0 -34 4 -34 10 0 5 13 7 32 3
22 -4 29 -3 24 5 -9 14 13 16 47 3 13 -5 29 -6 36 -2 10 6 9 10 -3 14 -9 4
-16 18 -16 35 0 15 -5 33 -12 40 -18 18 3 14 24 -5 10 -9 18 -25 18 -37 0 -20
1 -20 16 3 12 17 13 26 5 34 -6 6 -11 28 -11 48 0 21 -4 39 -8 41 -14 6 -56
72 -59 92 -2 11 -10 30 -18 42 -7 12 -17 50 -20 85 -4 35 -10 75 -15 89 -5 14
-11 42 -15 63 -5 34 -4 37 19 37 24 0 56 23 56 40 0 5 8 10 18 13 14 3 12 6
-8 14 -22 9 -26 8 -30 -11 -4 -15 -14 -22 -39 -24 -29 -2 -32 0 -21 13 7 8 16
13 20 10 4 -3 16 7 25 21 17 26 20 26 89 20 64 -5 69 -4 51 9 -20 16 -78 35
-107 35 -21 0 -20 20 2 37 23 19 70 15 125 -11z m1496 1 c-1 -4 8 -16 19 -27
11 -11 20 -29 20 -41 0 -11 6 -27 14 -35 15 -14 32 -91 23 -101 -10 -9 -27 8
-27 27 0 10 -4 21 -8 24 -5 3 -8 -57 -8 -133 1 -119 -2 -142 -16 -158 -14 -15
-18 -38 -18 -104 0 -114 -18 -306 -30 -330 -17 -30 -30 -22 -30 17 0 54 -22
164 -32 158 -4 -3 -8 -1 -8 5 0 5 6 12 13 14 9 4 8 8 -3 16 -18 12 -18 77 -1
109 10 19 15 20 33 11 15 -8 19 -8 16 1 -2 6 -7 11 -12 10 -5 -1 -13 4 -17 12
-14 21 -10 192 5 271 8 40 17 110 20 156 5 79 18 115 38 109 5 -2 9 -7 9 -11z
m513 -24 c-10 -40 -14 -41 -14 -5 0 18 5 32 10 32 6 0 8 -11 4 -27z m-161 -56
c-8 -13 -21 23 -22 58 0 13 5 8 14 -14 8 -18 12 -38 8 -44z m-1082 30 c-8 -8
-11 -7 -11 4 0 20 13 34 18 19 3 -7 -1 -17 -7 -23z m-272 -22 c0 -5 -4 -3 -9
5 -5 8 -9 22 -9 30 0 16 17 -16 18 -35z m-1052 -147 c-2 -35 -3 -9 -3 57 0 66
1 94 3 63 2 -32 2 -86 0 -120z m2597 107 c-1 -64 -12 -102 -16 -54 -2 43 7
119 15 119 1 0 2 -29 1 -65z m-1424 34 c0 -14 -17 -10 -23 5 -4 10 -1 13 9 9
7 -3 14 -9 14 -14z m40 2 c0 -6 -4 -13 -10 -16 -5 -3 -10 1 -10 9 0 9 5 16 10
16 6 0 10 -4 10 -9z m-132 -61 l0 -25 -8 25 c-4 14 -8 34 -8 45 l-1 20 9 -20
c5 -11 8 -31 8 -45z m206 25 c-8 -33 14 -88 32 -81 21 8 17 -38 -5 -58 -10 -9
-22 -31 -25 -48 -3 -17 -8 -29 -11 -26 -7 7 -19 88 -16 113 1 11 1 34 1 50 0
26 17 75 27 75 2 0 1 -11 -3 -25z m-53 -12 c-12 -20 -14 -14 -5 12 4 9 9 14
11 11 3 -2 0 -13 -6 -23z m1287 -20 c1 -25 11 -65 23 -87 18 -35 20 -52 16
-109 -3 -38 -11 -75 -17 -83 -7 -7 -12 -29 -12 -49 0 -19 -4 -35 -9 -35 -5 0
-9 12 -9 26 0 14 -4 23 -10 19 -6 -4 -10 12 -10 42 0 26 -4 66 -9 88 -5 22
-12 78 -16 125 -7 73 -6 83 7 72 12 -10 17 -7 28 13 7 14 14 25 15 25 0 0 2
-21 3 -47z m-1478 22 c0 -8 -4 -15 -10 -15 -5 0 -10 7 -10 15 0 8 5 15 10 15
6 0 10 -7 10 -15z m137 -5 c3 -11 9 -17 14 -14 5 3 9 -4 9 -15 0 -12 -7 -21
-15 -21 -17 0 -21 -55 -5 -65 6 -4 10 7 10 25 0 21 4 30 13 27 8 -3 11 -25 9
-78 -4 -81 -19 -167 -21 -117 -2 47 -19 40 -19 -7 1 -31 5 -45 15 -45 8 0 13
-12 13 -30 0 -33 -14 -40 -24 -12 -3 9 -10 24 -15 32 -14 22 -34 181 -28 221
16 100 20 119 29 119 6 0 12 -9 15 -20z m1183 5 c0 -8 -2 -15 -4 -15 -2 0 -6
7 -10 15 -3 8 -1 15 4 15 6 0 10 -7 10 -15z m-1034 -53 c-4 -3 -11 -1 -17 5
-8 8 -7 18 3 34 l13 24 3 -28 c2 -16 1 -31 -2 -35z m-276 13 c0 -8 4 -15 9
-15 9 0 51 -142 51 -173 0 -9 -7 -17 -15 -17 -8 0 -15 -6 -16 -12 0 -7 -5 -2
-10 11 -5 13 -7 32 -4 42 4 11 2 19 -3 19 -22 0 -53 135 -35 153 11 12 23 8
23 -8z m70 -28 c0 -31 0 -31 -15 -10 -8 12 -12 28 -9 37 9 25 24 8 24 -27z
m1451 -7 c5 0 9 -5 9 -11 0 -8 -5 -8 -15 1 -8 7 -14 22 -14 34 2 20 2 20 6 -1
2 -13 9 -23 14 -23z m-1576 0 c3 -5 1 -10 -4 -10 -6 0 -11 5 -11 10 0 6 2 10
4 10 3 0 8 -4 11 -10z m1707 -50 c-2 -22 -8 -40 -13 -40 -4 0 -6 -7 -3 -15 9
-21 19 -19 32 8 8 17 9 8 6 -43 -4 -58 -14 -98 -14 -57 0 10 -4 17 -9 17 -5 0
-12 10 -15 23 -2 12 -3 -3 0 -33 3 -44 0 -63 -18 -94 -13 -22 -29 -41 -35 -44
-17 -5 -17 32 1 71 14 32 28 91 42 177 5 25 9 48 10 53 1 4 2 9 3 12 0 3 4 5
9 5 4 0 6 -18 4 -40z m-1772 -13 c0 -16 -18 3 -23 25 -6 22 -5 22 8 4 8 -11
15 -24 15 -29z m669 -5 c7 -14 9 -52 6 -90 -4 -46 -2 -61 4 -47 5 11 10 32 10
48 1 15 6 27 11 27 6 0 10 -31 10 -74 0 -67 -5 -85 -46 -178 -26 -57 -51 -107
-56 -113 -7 -7 -8 18 -4 72 4 45 7 150 7 234 0 83 2 156 5 160 8 13 41 -12 53
-39z m278 26 c-3 -8 -6 -5 -6 6 -1 11 2 17 5 13 3 -3 4 -12 1 -19z m-877 -4
c0 -8 -5 -12 -10 -9 -6 4 -8 11 -5 16 9 14 15 11 15 -7z m690 -4 c0 -5 -4 -10
-10 -10 -5 0 -10 5 -10 10 0 6 5 10 10 10 6 0 10 -4 10 -10z m432 -22 c-9 -9
-12 -7 -12 12 0 19 3 21 12 12 9 -9 9 -15 0 -24z m478 2 c0 -16 -4 -30 -10
-30 -11 0 -14 43 -3 53 11 12 13 8 13 -23z m-1277 -53 c-7 -62 -23 -87 -23
-35 0 50 11 99 21 93 4 -3 5 -29 2 -58z m468 26 c-4 -28 -6 -32 -9 -15 -3 22
3 52 11 52 1 0 1 -17 -2 -37z m-826 -6 c2 -12 8 -21 14 -19 13 2 14 -8 2 -26
-6 -11 -10 -11 -18 0 -16 19 -25 56 -18 69 9 14 18 4 20 -24z m45 17 c0 -8 -4
-12 -10 -9 -5 3 -10 10 -10 16 0 5 5 9 10 9 6 0 10 -7 10 -16z m680 -9 c0 -16
-6 -25 -15 -25 -16 0 -19 9 -9 34 9 25 24 19 24 -9z m951 4 c4 -8 1 -42 -6
-75 -9 -39 -13 -49 -14 -30 -2 55 -16 19 -20 -51 -2 -36 -21 -26 -21 11 0 57
12 126 21 120 5 -3 9 6 9 20 0 28 21 31 31 5z m-765 -36 c-10 -26 -18 -8 -9
23 5 21 8 24 11 11 2 -10 1 -25 -2 -34z m-956 -6 c0 -5 -4 -5 -10 -2 -5 3 -10
14 -10 23 0 15 2 15 10 2 5 -8 10 -19 10 -23z m311 6 c-8 -15 -10 -15 -11 -2
0 17 10 32 18 25 2 -3 -1 -13 -7 -23z m-194 -15 c-3 -7 -5 -2 -5 12 0 14 2 19
5 13 2 -7 2 -19 0 -25z m1409 -11 c-3 -12 -5 -33 -6 -47 -2 -24 -2 -24 -11 5
-9 32 -2 78 12 69 5 -3 7 -15 5 -27z m-650 -14 c-10 -10 -19 5 -10 18 6 11 8
11 12 0 2 -7 1 -15 -2 -18z m-569 -20 c-3 -10 -5 -4 -5 12 0 17 2 24 5 18 2
-7 2 -21 0 -30z m-198 -47 c6 -4 11 -15 11 -25 0 -10 16 -38 36 -64 20 -25 33
-51 29 -57 -10 -15 -41 14 -49 45 -3 14 -22 51 -41 84 -19 33 -35 65 -35 73 0
7 9 -1 19 -18 11 -18 24 -35 30 -38z m-419 3 c0 -11 -4 -17 -10 -14 -5 3 -10
13 -10 21 0 8 5 14 10 14 6 0 10 -9 10 -21z m470 17 c0 -3 -4 -8 -10 -11 -5
-3 -10 -1 -10 4 0 6 5 11 10 11 6 0 10 -2 10 -4z m1275 -66 c3 -5 2 -10 -4
-10 -5 0 -13 5 -16 10 -3 6 -2 10 4 10 5 0 13 -4 16 -10z m122 -20 c-1 -11 -5
-20 -9 -20 -10 0 -10 4 -2 24 8 22 13 20 11 -4z m-1833 -26 c3 -9 6 -27 6 -42
0 -17 3 -23 10 -16 7 7 36 -3 87 -28 81 -39 113 -67 113 -99 0 -22 -25 -26
-33 -5 -3 8 -32 23 -64 32 -32 10 -63 23 -69 30 -5 7 -22 16 -36 19 -28 7 -54
57 -41 79 4 6 6 19 5 29 -4 21 14 23 22 1z m1846 -54 c0 -15 -24 -50 -33 -50
-2 0 -2 17 -2 38 0 32 3 38 17 34 10 -2 18 -12 18 -22z m-1900 -12 c22 -24 25
-34 11 -43 -9 -5 -51 44 -51 59 0 13 20 5 40 -16z m1837 -10 c-3 -7 -5 -2 -5
12 0 14 2 19 5 13 2 -7 2 -19 0 -25z m-1787 -110 c0 -6 -7 -5 -15 2 -8 7 -15
17 -15 22 0 6 7 5 15 -2 8 -7 15 -17 15 -22z m877 -50 c-2 -13 -4 -5 -4 17 -1
22 1 32 4 23 2 -10 2 -28 0 -40z m-2187 -728 c0 -5 -4 -10 -10 -10 -5 0 -10 5
-10 10 0 6 5 10 10 10 6 0 10 -4 10 -10z m447 -236 c-3 -3 -12 -4 -19 -1 -8 3
-5 6 6 6 11 1 17 -2 13 -5z m573 -74 c0 -5 -7 -10 -15 -10 -8 0 -15 -7 -15
-15 0 -8 9 -15 20 -15 11 0 20 -4 20 -9 0 -15 -23 -26 -27 -14 -2 6 -12 9 -22
6 -10 -3 -22 0 -25 6 -4 6 0 11 8 11 10 0 16 9 16 25 0 18 5 25 20 25 11 0 20
-4 20 -10z m-110 -10 c0 -5 -5 -10 -11 -10 -5 0 -7 5 -4 10 3 6 8 10 11 10 2
0 4 -4 4 -10z m-335 -279 c-10 -9 -57 -15 -85 -11 -8 2 3 6 25 10 61 11 70 11
60 1z m195 -5 c0 -5 -20 -6 -46 -2 -28 3 -43 2 -39 -4 3 -6 -1 -10 -9 -10 -8
0 -18 5 -21 11 -5 6 -11 4 -19 -7 -12 -16 -13 -15 -19 5 -5 22 -4 22 74 19 43
-2 79 -7 79 -12z m-364 -25 c-8 -12 -46 -21 -46 -11 0 5 8 11 18 13 29 8 33 7
28 -2z m171 -4 c6 -6 -48 -15 -132 -22 -47 -3 -63 -2 -50 4 11 5 49 10 85 10
47 1 61 4 50 11 -11 8 -8 9 14 6 16 -3 30 -7 33 -9z m220 -114 c-15 -16 -17
-16 -17 -1 0 9 6 18 13 21 20 7 22 -2 4 -20z m38 17 c3 -5 1 -10 -4 -10 -6 0
-11 5 -11 10 0 6 2 10 4 10 3 0 8 -4 11 -10z m42 -6 c-3 -3 -12 -4 -19 -1 -8
3 -5 6 6 6 11 1 17 -2 13 -5z m53 -14 c0 -5 -6 -10 -14 -10 -8 0 -18 5 -21 10
-3 6 3 10 14 10 12 0 21 -4 21 -10z m-703 -6 c-3 -3 -12 -4 -19 -1 -8 3 -5 6
6 6 11 1 17 -2 13 -5z m1008 -23 c121 -16 227 -32 237 -35 23 -10 30 -44 10
-55 -10 -4 -48 -14 -87 -21 -88 -16 -205 -49 -313 -89 -87 -32 -132 -41 -72
-15 31 14 33 17 15 24 -19 7 -19 7 3 14 12 4 22 11 22 16 0 4 -10 6 -22 2 -19
-4 -21 -3 -12 9 14 17 6 79 -10 79 -6 0 -3 5 7 11 19 11 14 29 -9 29 -8 0 -14
-7 -14 -15 0 -17 -16 -20 -25 -6 -3 5 8 18 24 27 31 18 32 39 2 29 -9 -3 -26
2 -37 10 -18 13 -16 14 21 14 22 1 139 -12 260 -28z m-448 -88 c-2 -21 -4 -6
-4 32 0 39 2 55 4 38 2 -18 2 -50 0 -70z m743 27 c0 -5 -4 -10 -10 -10 -5 0
-10 5 -10 10 0 6 5 10 10 10 6 0 10 -4 10 -10z m425 -40 c-3 -5 -20 -10 -36
-10 -18 0 -28 4 -24 10 3 6 20 10 36 10 18 0 28 -4 24 -10z m-167 -35 c70 -14
140 -30 155 -36 36 -15 42 -8 17 19 l-21 22 26 0 c14 0 34 5 45 12 10 7 23 9
27 5 4 -5 1 -12 -7 -17 -9 -6 -10 -10 -3 -10 6 0 19 8 29 18 17 16 17 16 12
-4 -4 -16 0 -25 17 -32 12 -6 31 -30 43 -55 12 -25 26 -48 32 -52 5 -3 10 -12
10 -19 0 -9 -26 -15 -92 -19 -135 -8 -238 -27 -238 -43 0 -17 13 -17 60 -4 32
10 297 40 347 40 30 0 41 -37 17 -60 -11 -10 -59 -28 -109 -40 -49 -12 -119
-33 -154 -46 -35 -14 -71 -24 -80 -22 -9 1 -22 -1 -28 -5 -8 -5 -13 -4 -13 2
0 6 -9 11 -20 11 -11 0 -20 -4 -20 -10 0 -5 -5 -10 -12 -10 -6 0 -8 3 -5 7 4
3 2 12 -3 18 -6 7 -12 26 -13 43 -2 32 -17 34 -17 1 0 -10 -4 -19 -10 -19 -5
0 -10 11 -10 25 0 19 -5 25 -22 26 -14 1 -1 8 31 18 66 22 57 30 -26 26 -42
-2 -61 1 -56 8 3 5 0 15 -8 21 -15 11 -56 91 -79 153 -23 62 -7 64 178 28z
m-200 -30 c7 -14 12 -36 12 -49 0 -21 -7 -25 -67 -36 -85 -15 -128 -29 -267
-87 -147 -60 -156 -63 -156 -58 0 2 20 16 45 31 25 14 45 27 45 29 0 2 -16 1
-36 -2 -31 -5 -35 -3 -32 13 2 16 -3 19 -27 17 -23 -2 -27 0 -15 8 11 8 8 9
-12 5 -16 -4 -28 -2 -28 2 0 8 134 61 235 93 57 18 235 57 266 58 18 1 29 -6
37 -24z m812 -110 c0 -8 -4 -15 -10 -15 -5 0 -7 7 -4 15 4 8 8 15 10 15 2 0 4
-7 4 -15z m-771 -29 c-9 -9 -109 -14 -115 -5 -3 5 22 9 57 9 34 0 60 -2 58 -4z
m756 -15 c-3 -6 -11 -11 -17 -11 -6 0 -6 6 2 15 14 17 26 13 15 -4z m-905 -11
c12 -8 9 -10 -13 -10 -20 0 -30 -6 -34 -19 -3 -11 -14 -22 -25 -24 -19 -5 -19
-5 -2 14 20 22 6 25 -22 4 -10 -8 -27 -15 -36 -15 -10 0 -34 -9 -55 -20 -35
-18 -135 -40 -123 -27 3 3 30 14 60 25 83 30 122 44 155 58 25 10 50 18 75 23
3 0 12 -4 20 -9z m15 -90 c-3 -5 -12 -10 -18 -10 -7 0 -6 4 3 10 19 12 23 12
15 0z m1065 -84 c0 -3 -4 -8 -10 -11 -5 -3 -10 -1 -10 4 0 6 5 11 10 11 6 0
10 -2 10 -4z m40 -41 c0 -19 -4 -35 -9 -35 -4 0 -6 12 -3 26 3 16 -1 30 -9 35
-11 7 -10 9 4 9 13 0 17 -8 17 -35z m-680 10 c14 -16 10 -18 -14 -9 -9 3 -16
10 -16 15 0 14 16 11 30 -6z m-5 -55 c3 -5 1 -10 -4 -10 -6 0 -11 5 -11 10 0
6 2 10 4 10 3 0 8 -4 11 -10z m75 -5 c7 -8 8 -15 2 -15 -5 0 -15 7 -22 15 -7
8 -8 15 -2 15 5 0 15 -7 22 -15z m575 5 c-3 -5 -11 -10 -16 -10 -6 0 -7 5 -4
10 3 6 11 10 16 10 6 0 7 -4 4 -10z m-390 -25 c32 -11 35 -14 15 -14 -14 0
-36 6 -50 14 -32 18 -16 19 35 0z m325 5 c-20 -13 -33 -13 -25 0 3 6 14 10 23
10 15 0 15 -2 2 -10z m-52 -17 c-10 -2 -28 -2 -40 0 -13 2 -5 4 17 4 22 1 32
-1 23 -4z m-528 -13 c0 -5 -7 -10 -16 -10 -8 0 -12 5 -9 10 3 6 10 10 16 10 5
0 9 -4 9 -10z m357 4 c-3 -3 -12 -4 -19 -1 -8 3 -5 6 6 6 11 1 17 -2 13 -5z
m86 -1 c-13 -2 -35 -2 -50 0 -16 2 -5 4 22 4 28 0 40 -2 28 -4z m422 -143 c3
-5 1 -10 -4 -10 -6 0 -11 5 -11 10 0 6 2 10 4 10 3 0 8 -4 11 -10z m-71 -15
c-4 -8 -8 -15 -10 -15 -2 0 -4 7 -4 15 0 8 4 15 10 15 5 0 7 -7 4 -15z m1853
-1 c3 -8 12 -13 19 -10 21 8 44 -35 51 -92 l6 -51 -39 -6 c-40 -6 -158 -34
-183 -43 -11 -4 -13 7 -9 64 7 85 23 122 62 139 43 19 85 18 93 -1z m-2015
-42 c-6 -5 -19 -17 -28 -28 -8 -10 -13 -13 -9 -6 3 6 1 12 -5 12 -6 0 -8 5 -5
10 4 6 10 8 15 5 5 -3 11 -1 15 5 3 5 12 10 18 10 9 0 9 -2 -1 -8z m-442 -18
c0 -8 -5 -12 -10 -9 -6 4 -8 11 -5 16 9 14 15 11 15 -7z m717 -46 c-2 -13 -4
-3 -4 22 0 25 2 35 4 23 2 -13 2 -33 0 -45z m-349 -80 l-1 -133 -7 125 c-7
113 -6 140 5 140 1 0 3 -60 3 -132z m406 110 c11 -42 19 -163 10 -155 -5 5 -9
23 -10 40 -1 18 -2 50 -3 72 -1 27 -4 35 -10 26 -6 -9 -8 -5 -8 13 0 32 12 34
21 4z m-454 -118 c0 -22 -2 -40 -4 -40 -2 0 -6 18 -8 40 -2 22 0 40 4 40 5 0
8 -18 8 -40z m408 -10 c0 -22 -4 -37 -9 -34 -5 3 -9 23 -9 45 0 23 4 38 9 34
6 -3 9 -23 9 -45z m-618 -21 c0 -6 -4 -7 -10 -4 -5 3 -10 11 -10 16 0 6 5 7
10 4 6 -3 10 -11 10 -16z m367 -11 c-3 -8 -6 -5 -6 6 -1 11 2 17 5 13 3 -3 4
-12 1 -19z m-160 -65 c-3 -10 -5 -4 -5 12 0 17 2 24 5 18 2 -7 2 -21 0 -30z"/>
<path d="M2251 4884 c0 -11 3 -14 6 -6 3 7 2 16 -1 19 -3 4 -6 -2 -5 -13z"/>
<path d="M2272 4830 c0 -19 2 -27 5 -17 2 9 2 25 0 35 -3 9 -5 1 -5 -18z"/>
<path d="M1045 4996 c50 -31 104 -72 120 -90 28 -32 64 -56 81 -56 5 0 -10 18
-31 41 -49 50 -190 145 -230 155 -19 4 3 -14 60 -50z"/>
<path d="M1267 4839 c7 -7 15 -10 18 -7 3 3 -2 9 -12 12 -14 6 -15 5 -6 -5z"/>
<path d="M975 4820 c3 -5 8 -10 11 -10 2 0 4 5 4 10 0 6 -5 10 -11 10 -5 0 -7
-4 -4 -10z"/>
<path d="M1067 4698 c7 -12 141 -9 149 3 4 7 -18 10 -74 7 -44 -2 -78 -6 -75
-10z"/>
<path d="M941 4654 c0 -11 3 -14 6 -6 3 7 2 16 -1 19 -3 4 -6 -2 -5 -13z"/>
<path d="M733 4580 c0 -25 2 -35 4 -22 2 12 2 32 0 45 -2 12 -4 2 -4 -23z"/>
<path d="M1480 3721 c0 -5 9 -7 20 -4 11 3 20 7 20 9 0 2 -9 4 -20 4 -11 0
-20 -4 -20 -9z"/>
<path d="M4030 5017 c0 -10 8 -17 18 -17 9 0 13 4 7 8 -5 4 -13 11 -17 16 -5
5 -8 2 -8 -7z"/>
<path d="M4078 4993 c6 -2 12 -16 12 -29 0 -16 6 -24 18 -24 14 0 15 -2 2 -10
-19 -12 -9 -21 17 -14 37 10 35 32 -5 59 -20 14 -41 25 -47 24 -5 0 -4 -3 3
-6z"/>
<path d="M4037 4983 c-4 -3 -7 -11 -7 -17 0 -6 5 -5 12 2 6 6 9 14 7 17 -3 3
-9 2 -12 -2z"/>
<path d="M4049 4943 c-18 -4 -34 -43 -18 -43 5 0 9 6 9 14 0 8 10 16 23 18 12
2 18 6 12 9 -5 3 -17 4 -26 2z"/>
<path d="M2956 4881 c-4 -5 -13 -8 -20 -5 -8 3 -23 -8 -36 -26 -19 -26 -21
-40 -16 -78 3 -25 11 -51 16 -56 11 -11 51 -16 45 -6 -2 4 7 13 21 21 25 13
26 17 22 76 -4 62 -19 96 -32 74z"/>
<path d="M3022 4800 c0 -14 2 -19 5 -12 2 6 2 18 0 25 -3 6 -5 1 -5 -13z"/>
<path d="M2554 4219 c-3 -6 -1 -16 4 -21 8 -8 11 -5 9 11 -1 24 -3 25 -13 10z"/>
<path d="M2580 4101 c0 -6 5 -13 11 -17 6 -3 8 -20 5 -38 -5 -28 -3 -32 16
-33 13 -1 24 -7 26 -13 8 -22 19 -9 15 18 -3 15 -6 38 -7 52 -2 14 -4 28 -5
33 -2 11 -61 9 -61 -2z"/>
<path d="M2688 4003 c7 -3 16 -2 19 1 4 3 -2 6 -13 5 -11 0 -14 -3 -6 -6z"/>
<path d="M3760 4820 c0 -5 5 -10 11 -10 5 0 7 5 4 10 -3 6 -8 10 -11 10 -2 0
-4 -4 -4 -10z"/>
<path d="M3785 4490 c4 -6 11 -8 16 -5 14 9 11 15 -7 15 -8 0 -12 -5 -9 -10z"/>
<path d="M2948 4323 c7 -3 16 -2 19 1 4 3 -2 6 -13 5 -11 0 -14 -3 -6 -6z"/>
<path d="M2948 4293 c7 -3 16 -2 19 1 4 3 -2 6 -13 5 -11 0 -14 -3 -6 -6z"/>
<path d="M1795 4140 c-3 -5 -1 -10 4 -10 6 0 11 5 11 10 0 6 -2 10 -4 10 -3 0
-8 -4 -11 -10z"/>
<path d="M1790 3836 c0 -2 8 -10 18 -17 15 -13 16 -12 3 4 -13 16 -21 21 -21
13z"/>
<path d="M2400 3960 c0 -5 5 -10 10 -10 6 0 10 5 10 10 0 6 -4 10 -10 10 -5 0
-10 -4 -10 -10z"/>
<path d="M4310 3909 c0 -5 9 -9 20 -9 11 0 20 2 20 4 0 2 -9 6 -20 9 -11 3
-20 1 -20 -4z"/>
<path d="M3230 3770 c0 -5 5 -10 10 -10 6 0 10 5 10 10 0 6 -4 10 -10 10 -5 0
-10 -4 -10 -10z"/>
<path d="M2940 3536 c0 -9 5 -16 10 -16 6 0 10 4 10 9 0 6 -4 13 -10 16 -5 3
-10 -1 -10 -9z"/>
<path d="M1510 3546 c0 -3 18 -25 40 -47 23 -23 40 -35 40 -27 0 13 -20 35
-62 67 -10 7 -18 11 -18 7z"/>
<path d="M1460 3387 c14 -8 27 -12 30 -10 7 6 -23 23 -40 23 -8 0 -4 -6 10
-13z"/>
<path d="M1298 3354 c-13 -12 -9 -41 7 -54 19 -15 32 -6 18 12 -6 7 -12 21
-14 31 -2 11 -7 15 -11 11z"/>
<path d="M1269 3215 c16 -30 51 -68 56 -63 3 3 -11 23 -31 44 -20 21 -31 30
-25 19z"/>
<path d="M1270 3110 c0 -5 12 -10 28 -9 24 0 25 1 7 9 -27 12 -35 12 -35 0z"/>
<path d="M1340 3106 c0 -8 5 -18 10 -21 6 -3 10 1 10 9 0 8 -4 18 -10 21 -5 3
-10 -1 -10 -9z"/>
<path d="M1320 3011 c0 -5 -3 -17 -7 -27 -4 -11 -2 -15 7 -12 15 5 22 48 8 48
-4 0 -8 -4 -8 -9z"/>
<path d="M1829 2678 c-5 -16 -4 -48 2 -48 7 0 19 25 19 41 0 8 -18 14 -21 7z"/>
<path d="M1520 2629 c0 -5 5 -7 10 -4 6 3 10 8 10 11 0 2 -4 4 -10 4 -5 0 -10
-5 -10 -11z"/>
<path d="M1589 2614 c18 -8 41 -12 50 -8 12 5 9 9 -14 14 -53 13 -73 10 -36
-6z"/>
<path d="M1660 2620 c0 -5 7 -10 16 -10 8 0 12 5 9 10 -3 6 -10 10 -16 10 -5
0 -9 -4 -9 -10z"/>
<path d="M1884 2511 c21 -23 26 -26 26 -11 0 5 -10 15 -22 21 -23 12 -23 12
-4 -10z"/>
<path d="M2911 3384 c0 -11 3 -14 6 -6 3 7 2 16 -1 19 -3 4 -6 -2 -5 -13z"/>
<path d="M2870 3025 c0 -8 5 -15 10 -15 6 0 10 7 10 15 0 8 -4 15 -10 15 -5 0
-10 -7 -10 -15z"/>
<path d="M2861 2693 c0 -42 3 -52 9 -38 12 28 12 83 0 90 -6 4 -10 -16 -9 -52z"/>
<path d="M2137 3273 c-10 -9 -9 -23 2 -23 5 0 11 7 15 15 5 15 -5 20 -17 8z"/>
<path d="M2420 3126 c0 -22 3 -27 11 -19 8 8 8 16 0 30 -9 16 -10 14 -11 -11z"/>
<path d="M2430 3018 c0 -34 13 -49 30 -38 10 7 11 10 3 10 -7 0 -13 11 -13 25
0 14 -4 25 -10 25 -5 0 -10 -10 -10 -22z"/>
<path d="M2410 2899 c0 -5 5 -7 10 -4 6 3 10 8 10 11 0 2 -4 4 -10 4 -5 0 -10
-5 -10 -11z"/>
<path d="M1540 2870 c0 -5 5 -10 10 -10 6 0 10 5 10 10 0 6 -4 10 -10 10 -5 0
-10 -4 -10 -10z"/>
<path d="M1245 1040 c-3 -5 -1 -10 4 -10 6 0 11 5 11 10 0 6 -2 10 -4 10 -3 0
-8 -4 -11 -10z"/>
<path d="M1860 970 c0 -5 5 -10 10 -10 6 0 10 5 10 10 0 6 -4 10 -10 10 -5 0
-10 -4 -10 -10z"/>
<path d="M1920 945 c0 -9 6 -12 15 -9 8 4 15 10 15 15 0 5 -7 9 -15 9 -8 0
-15 -7 -15 -15z"/>
<path d="M1878 928 c9 -9 15 -9 24 0 9 9 7 12 -12 12 -19 0 -21 -3 -12 -12z"/>
<path d="M315 5350 c3 -5 8 -10 11 -10 2 0 4 5 4 10 0 6 -5 10 -11 10 -5 0 -7
-4 -4 -10z"/>
<path d="M4600 4776 c-78 -28 -234 -105 -227 -113 3 -3 45 13 94 35 48 22 116
50 151 62 34 13 65 27 68 31 8 14 -15 9 -86 -15z"/>
<path d="M4764 4700 c-21 -21 -364 -129 -477 -151 -37 -7 -70 -24 -122 -63
-72 -54 -148 -127 -140 -134 2 -2 23 12 47 31 109 88 262 151 441 182 78 13
158 29 177 35 78 23 110 11 110 -43 0 -14 3 -18 10 -11 10 10 7 32 -16 142 -5
24 -14 28 -30 12z"/>
<path d="M3404 3695 c22 -17 46 -20 46 -6 0 10 -25 21 -48 21 -15 -1 -14 -3 2
-15z"/>
<path d="M3420 3630 c0 -5 4 -10 9 -10 6 0 13 5 16 10 3 6 -1 10 -9 10 -9 0
-16 -4 -16 -10z"/>
<path d="M0 3392 c0 -10 9 -25 20 -35 11 -9 20 -23 20 -31 0 -7 7 -19 15 -26
14 -11 14 -10 5 16 -12 32 -49 94 -56 94 -2 0 -4 -8 -4 -18z"/>
<path d="M4175 3380 c-82 -8 -118 -19 -217 -64 -83 -37 -198 -76 -227 -76 -38
0 -40 -46 -7 -150 l25 -75 0 69 c1 62 4 73 28 98 15 15 30 28 35 28 4 0 71 27
148 60 124 53 148 60 206 60 69 0 96 -9 129 -44 11 -12 36 -29 56 -39 20 -9
39 -24 43 -32 5 -14 46 -22 46 -8 0 15 -52 73 -61 68 -5 -4 -9 -1 -9 4 0 6 7
11 15 11 23 0 3 33 -38 63 -39 30 -80 36 -172 27z"/>
<path d="M3551 3351 c-8 -5 -9 -11 -3 -15 5 -3 12 1 16 9 6 17 6 18 -13 6z"/>
<path d="M3130 3340 c0 -5 5 -10 10 -10 6 0 10 5 10 10 0 6 -4 10 -10 10 -5 0
-10 -4 -10 -10z"/>
<path d="M3178 3303 c6 -2 12 -18 12 -34 0 -16 5 -29 10 -29 6 0 10 7 10 16 0
23 -19 54 -33 53 -9 0 -9 -2 1 -6z"/>
<path d="M4110 3278 c0 -31 -53 -78 -107 -95 -60 -19 -113 -63 -113 -94 0 -10
-7 -19 -15 -19 -8 0 -15 -6 -15 -14 0 -7 -7 -19 -15 -26 -25 -21 -17 -32 10
-14 14 9 40 42 58 72 30 52 37 57 90 73 91 27 267 46 267 28 0 -5 -10 -9 -22
-10 -13 0 -17 -3 -10 -6 6 -2 9 -10 6 -15 -4 -6 -2 -8 4 -5 5 4 21 3 34 -2 23
-10 23 -10 1 -10 -24 -1 -59 -19 -143 -75 -30 -20 -59 -36 -66 -36 -6 0 -21
-11 -34 -25 -13 -14 -20 -25 -16 -25 6 0 100 48 180 92 41 23 98 39 167 47 45
6 56 4 52 -6 -3 -7 -9 -10 -14 -7 -8 5 -13 -16 -10 -42 2 -17 -17 -29 -86 -57
-59 -24 -138 -75 -129 -84 2 -2 30 9 62 26 33 16 76 32 96 36 34 7 38 5 44
-20 4 -14 2 -31 -3 -36 -10 -10 -151 -38 -223 -44 -69 -7 -234 -80 -260 -117
-3 -4 -21 -9 -40 -11 -53 -7 -91 -17 -136 -37 -23 -11 -53 -22 -67 -25 -27 -7
-107 -71 -107 -85 0 -10 36 1 151 47 47 19 106 37 132 41 26 4 47 11 47 15 -2
21 102 87 176 111 73 24 257 19 262 -6 2 -12 -6 -21 -25 -28 -15 -6 -39 -16
-53 -24 -14 -7 -68 -16 -120 -20 -107 -8 -210 -26 -210 -38 0 -4 26 -5 58 -2
279 25 408 27 422 4 5 -8 8 -19 7 -25 -2 -5 2 -16 9 -25 53 -65 67 -80 75 -80
5 0 1 12 -11 28 -42 57 -48 261 -11 377 12 39 29 90 37 115 8 25 14 54 14 65
-1 18 -2 18 -11 3 -7 -13 -18 -16 -42 -11 -18 3 -36 11 -42 17 -32 36 -305
129 -305 104z m305 -277 c-3 -6 -11 -11 -17 -11 -6 0 -6 6 2 15 14 17 26 13
15 -4z"/>
<path d="M70 3275 c0 -16 28 -54 81 -111 26 -28 62 -80 79 -115 18 -35 40 -75
50 -89 10 -14 36 -61 58 -105 23 -45 50 -89 60 -98 11 -10 41 -52 68 -92 26
-41 49 -73 51 -71 9 8 -29 80 -90 173 -35 54 -86 139 -112 188 -54 103 -102
172 -160 230 -22 22 -50 54 -62 70 -12 17 -23 25 -23 20z"/>
<path d="M3157 3267 c-3 -8 -1 -20 4 -28 6 -10 9 -7 9 14 0 29 -5 35 -13 14z"/>
<path d="M4506 3247 c3 -10 9 -15 12 -12 3 3 0 11 -7 18 -10 9 -11 8 -5 -6z"/>
<path d="M3181 3216 c-6 -7 -9 -21 -5 -30 3 -9 2 -16 -4 -16 -6 0 -13 6 -15
13 -3 6 -6 2 -6 -10 -1 -12 4 -25 10 -29 6 -3 17 -20 25 -38 13 -29 13 -27 11
46 -1 43 -3 78 -3 78 -1 0 -7 -6 -13 -14z"/>
<path d="M3846 3156 c-21 -20 -45 -36 -53 -36 -11 0 -13 -7 -9 -27 4 -16 2
-43 -3 -61 -6 -20 -6 -42 -1 -55 7 -17 9 -18 9 -5 1 10 12 37 26 62 14 25 25
53 25 62 0 16 1 16 14 -2 14 -18 15 -18 21 8 4 15 4 31 1 37 -3 5 -1 11 5 13
6 2 10 12 8 21 -3 15 -10 12 -43 -17z"/>
<path d="M3145 3090 c3 -5 8 -10 11 -10 2 0 4 5 4 10 0 6 -5 10 -11 10 -5 0
-7 -4 -4 -10z"/>
<path d="M2718 2994 c-2 -25 0 -51 4 -57 4 -7 8 14 8 46 0 68 -7 75 -12 11z"/>
<path d="M3960 2990 c0 -5 4 -10 9 -10 6 0 13 5 16 10 3 6 -1 10 -9 10 -9 0
-16 -4 -16 -10z"/>
<path d="M3746 2958 c-3 -13 -6 -42 -6 -66 0 -23 -7 -54 -16 -68 -20 -30 -14
-40 15 -24 19 10 21 20 21 95 0 87 -3 102 -14 63z"/>
<path d="M3822 2960 c-16 -27 -15 -50 3 -50 8 0 15 5 15 11 0 6 7 18 16 26 13
13 13 17 2 24 -19 12 -22 11 -36 -11z"/>
<path d="M4325 2961 c-3 -6 -3 -11 2 -12 4 -1 -3 -5 -17 -9 -21 -7 -18 -8 15
-7 28 1 40 7 40 17 0 18 -30 26 -40 11z"/>
<path d="M3830 2854 c0 -8 5 -12 10 -9 6 3 10 10 10 16 0 5 -4 9 -10 9 -5 0
-10 -7 -10 -16z"/>
<path d="M3630 2791 c-12 -24 -13 -81 -1 -81 5 0 11 15 13 33 3 17 8 40 13 50
10 24 -12 22 -25 -2z"/>
<path d="M4468 2663 c7 -3 16 -2 19 1 4 3 -2 6 -13 5 -11 0 -14 -3 -6 -6z"/>
<path d="M2696 2641 c-4 -7 -5 -15 -2 -18 9 -9 19 4 14 18 -4 11 -6 11 -12 0z"/>
<path d="M4130 2622 c-32 -4 -112 -32 -125 -44 -6 -6 12 -6 45 -2 30 4 60 14
66 22 8 11 15 12 32 3 29 -15 95 -15 90 2 -5 13 -67 24 -108 19z"/>
<path d="M0 2601 c0 -5 5 -13 10 -16 5 -3 10 -2 10 4 0 5 -4 13 -10 16 -5 3
-10 2 -10 -4z"/>
<path d="M2795 2590 c3 -5 8 -10 11 -10 2 0 4 5 4 10 0 6 -5 10 -11 10 -5 0
-7 -4 -4 -10z"/>
<path d="M3908 2543 c7 -3 16 -2 19 1 4 3 -2 6 -13 5 -11 0 -14 -3 -6 -6z"/>
<path d="M3798 2533 c7 -3 16 -2 19 1 4 3 -2 6 -13 5 -11 0 -14 -3 -6 -6z"/>
<path d="M3680 2514 c-52 -8 -117 -22 -145 -30 -68 -22 -165 -65 -165 -74 0
-4 30 3 68 15 37 12 90 27 117 33 91 20 210 54 220 63 5 5 7 9 5 8 -3 -1 -48
-7 -100 -15z"/>
<path d="M2338 2446 c-3 -16 -4 -113 -2 -215 3 -117 1 -179 -5 -166 -5 11 -7
30 -4 43 3 12 1 22 -5 22 -5 0 -12 -23 -15 -51 -4 -29 -9 -54 -11 -57 -12 -11
-36 23 -37 52 -1 29 -2 29 -10 -9 -10 -49 5 -85 36 -85 21 0 22 -3 17 -70 -2
-38 -1 -70 4 -70 5 0 20 -9 33 -19 16 -12 21 -23 15 -32 -11 -18 -6 -74 11
-129 8 -25 17 -62 20 -82 3 -21 10 -40 15 -43 5 -3 6 11 2 32 -9 49 -7 254 3
314 5 33 1 80 -14 160 -12 63 -27 186 -34 274 -8 93 -15 148 -19 131z m-8
-440 c0 -11 -19 -15 -25 -6 -3 5 1 10 9 10 9 0 16 -2 16 -4z m47 -78 c-3 -8
-6 -5 -6 6 -1 11 2 17 5 13 3 -3 4 -12 1 -19z m-42 -58 c-6 -9 16 -15 40 -11
6 1 2 -6 -8 -16 -18 -17 -19 -17 -32 1 -13 17 -12 36 1 36 3 0 2 -4 -1 -10z"/>
<path d="M2832 2365 c0 -16 2 -22 5 -12 2 9 2 23 0 30 -3 6 -5 -1 -5 -18z"/>
<path d="M1235 2311 c-3 -6 4 -15 15 -21 11 -6 20 -15 20 -21 0 -6 -4 -7 -10
-4 -6 3 -7 -1 -4 -9 8 -20 24 -21 24 -2 0 8 4 17 9 21 9 5 70 -24 99 -47 9 -8
12 -5 12 8 0 14 -16 26 -62 43 -35 14 -67 28 -72 33 -13 11 -23 10 -31 -1z"/>
<path d="M1170 2302 c0 -18 19 -24 37 -13 10 6 13 11 6 11 -6 0 -18 3 -27 6
-9 3 -16 1 -16 -4z"/>
<path d="M1263 2211 c4 -18 3 -18 -29 -5 -28 12 -33 12 -28 0 7 -19 40 -33
113 -46 36 -6 103 -23 149 -36 47 -14 90 -23 96 -21 6 3 -1 8 -17 12 -17 5
-26 13 -25 23 2 10 -5 18 -17 20 -11 3 -23 9 -26 14 -4 6 -33 11 -65 13 -33 1
-68 3 -80 4 -12 0 -31 10 -44 21 -29 25 -34 25 -27 1z"/>
<path d="M2468 2200 c-10 -23 -18 -269 -8 -275 5 -3 11 18 15 47 8 66 2 248
-7 228z"/>
<path d="M1160 2166 c0 -15 7 -26 20 -29 23 -6 26 10 6 36 -18 23 -26 21 -26
-7z"/>
<path d="M1230 2139 c0 -5 5 -7 10 -4 6 3 10 8 10 11 0 2 -4 4 -10 4 -5 0 -10
-5 -10 -11z"/>
<path d="M1150 2100 c0 -12 43 -30 84 -36 16 -2 36 -10 45 -18 21 -19 59 -33
150 -57 90 -23 95 -23 87 -3 -5 13 -1 15 21 9 23 -5 25 -4 13 9 -7 9 -58 30
-114 47 -55 17 -120 37 -144 45 -50 16 -142 19 -142 4z"/>
<path d="M3960 2060 c0 -6 7 -10 15 -10 8 0 15 2 15 4 0 2 -7 6 -15 10 -8 3
-15 1 -15 -4z"/>
<path d="M1185 2034 c17 -13 29 -29 27 -35 -1 -6 6 -25 16 -42 11 -18 17 -38
15 -44 -3 -7 0 -13 6 -13 6 0 11 -9 11 -20 0 -23 14 -27 125 -35 44 -3 100 -8
125 -11 67 -9 44 3 -50 27 -58 14 -96 30 -124 53 -23 18 -53 40 -68 49 -18 11
-28 27 -30 49 -3 29 -6 33 -30 31 -16 -1 -28 2 -28 8 0 5 -6 9 -12 9 -7 -1 1
-12 17 -26z"/>
<path d="M3828 2053 c6 -2 18 -2 25 0 6 3 1 5 -13 5 -14 0 -19 -2 -12 -5z"/>
<path d="M13 1983 c9 -2 25 -2 35 0 9 3 1 5 -18 5 -19 0 -27 -2 -17 -5z"/>
<path d="M2224 1978 c-5 -7 -3 -8 6 -3 10 6 12 1 7 -25 -6 -27 -5 -30 7 -21 7
6 21 9 30 5 12 -5 16 0 16 16 0 17 -4 21 -20 17 -13 -3 -20 0 -20 9 0 17 -16
18 -26 2z"/>
<path d="M2270 1910 c0 -7 -7 -10 -15 -6 -8 3 -15 2 -15 -3 0 -5 9 -11 19 -14
21 -5 37 18 21 28 -6 4 -10 1 -10 -5z"/>
<path d="M1150 1866 c0 -9 5 -16 10 -16 6 0 10 4 10 9 0 6 -4 13 -10 16 -5 3
-10 -1 -10 -9z"/>
<path d="M1580 1716 c104 -37 153 -65 141 -80 -9 -11 4 -13 71 -14 l83 0 -60
10 c-33 5 -62 13 -65 17 -12 16 -99 60 -152 75 -82 23 -94 18 -18 -8z"/>
<path d="M4030 1690 c-11 -7 -7 -10 18 -10 17 0 32 5 32 10 0 13 -30 13 -50 0z"/>
<path d="M135 1655 c-50 -13 -100 -24 -112 -25 -16 0 -23 -6 -23 -21 0 -23
-13 -25 158 28 61 19 112 37 112 39 0 9 -51 2 -135 -21z"/>
<path d="M3905 1643 c-22 -8 -96 -19 -165 -24 -69 -5 -147 -12 -175 -16 l-50
-8 35 -14 c63 -24 329 -52 300 -32 -9 7 -10 11 -3 11 6 0 15 -4 18 -10 3 -5
27 -10 53 -10 26 0 63 -4 81 -10 19 -5 37 -7 40 -5 11 12 -19 26 -75 33 -58 9
-58 9 -30 21 16 6 38 9 48 5 24 -7 128 -7 136 1 3 3 -5 16 -18 30 -20 21 -33
25 -79 25 -40 0 -52 3 -41 10 24 15 -28 10 -75 -7z"/>
<path d="M2493 1493 c9 -2 23 -2 30 0 6 3 -1 5 -18 5 -16 0 -22 -2 -12 -5z"/>
<path d="M3978 1463 c12 -2 30 -2 40 0 9 3 -1 5 -23 4 -22 0 -30 -2 -17 -4z"/>
<path d="M4121 1433 c-21 -21 -64 -56 -95 -78 -52 -38 -67 -55 -47 -55 12 0
98 66 158 122 28 26 45 48 37 48 -8 0 -32 -17 -53 -37z"/>
<path d="M3600 1372 c0 -11 -121 -59 -170 -68 -19 -3 -39 -10 -45 -14 -20 -16
-101 -32 -175 -36 -41 -2 -107 -9 -146 -15 -39 -6 -92 -10 -117 -8 -26 2 -47
1 -47 -2 0 -13 71 -20 202 -20 129 0 189 9 353 47 50 12 116 17 235 17 91 0
148 2 127 4 -20 2 -35 8 -32 14 4 5 -19 9 -54 9 l-60 0 4 40 4 40 -40 0 c-21
0 -39 -4 -39 -8z m60 -62 c0 -5 -2 -10 -4 -10 -3 0 -8 5 -11 10 -3 6 -1 10 4
10 6 0 11 -4 11 -10z"/>
<path d="M3855 1220 c-15 -6 -5 -9 38 -11 78 -2 80 -3 84 -14 2 -6 -66 -10
-189 -10 -222 0 -277 -5 -408 -34 -52 -12 -144 -31 -205 -41 -98 -17 -180 -34
-365 -74 l-55 -12 85 -7 c107 -9 178 3 465 77 28 7 61 18 75 26 19 10 97 13
353 12 276 0 326 2 317 13 -6 8 -30 16 -53 18 l-42 4 45 2 c35 2 41 4 25 11
-17 7 -17 9 -2 9 21 1 23 27 1 35 -23 9 -146 6 -169 -4z"/>
<path d="M3204 849 c-12 -19 15 -33 68 -35 29 -1 68 -5 87 -9 58 -13 27 11
-36 28 -97 26 -111 28 -119 16z"/>
<path d="M50 623 c-22 -9 -54 -42 -47 -49 3 -4 30 5 59 19 29 13 60 27 68 30
8 3 -3 5 -25 5 -22 0 -47 -2 -55 -5z"/>
<path d="M3580 563 c0 -9 -79 -65 -125 -88 -11 -6 -51 -21 -90 -34 -38 -12
-88 -31 -110 -41 -22 -10 -47 -21 -55 -24 -24 -9 80 5 145 19 33 7 83 16 110
20 63 8 95 25 48 25 -36 0 -52 16 -25 24 28 9 118 93 110 102 -5 4 -8 3 -8 -3z"/>
<path d="M90 420 c0 -5 5 -10 10 -10 6 0 10 5 10 10 0 6 -4 10 -10 10 -5 0
-10 -4 -10 -10z"/>
<path d="M265 420 c-60 -17 -109 -38 -113 -50 -3 -7 10 -5 34 6 22 9 50 19 63
22 31 6 81 32 61 31 -8 -1 -28 -5 -45 -9z"/>
<path d="M42 390 c-11 -11 -26 -20 -32 -20 -5 0 -10 -7 -10 -15 0 -22 21 -18
55 10 20 17 26 28 19 35 -7 7 -17 4 -32 -10z"/>
<path d="M100 353 c-8 -2 -21 -7 -29 -9 -8 -2 -12 -7 -9 -9 3 -3 22 1 44 9 35
13 30 21 -6 9z"/>
<path d="M520 276 c0 -9 5 -16 10 -16 6 0 10 4 10 9 0 6 -4 13 -10 16 -5 3
-10 -1 -10 -9z"/>
<path d="M580 190 c0 -5 5 -10 10 -10 6 0 10 5 10 10 0 6 -4 10 -10 10 -5 0
-10 -4 -10 -10z"/>
<path d="M10 170 c-8 -5 -12 -12 -9 -15 8 -8 39 5 39 16 0 11 -11 11 -30 -1z"/>
<path d="M2803 110 c0 -30 2 -43 4 -28 2 16 2 40 0 55 -2 16 -4 3 -4 -27z"/>
<path d="M2831 144 c0 -11 3 -14 6 -6 3 7 2 16 -1 19 -3 4 -6 -2 -5 -13z"/>
</g>
</svg>
